<?xml version="1.0" encoding="utf-8"?>
<!-- Generator: Adobe Illustrator 15.0.0, SVG Export Plug-In . SVG Version: 6.00 Build 0)  -->
<!DOCTYPE svg PUBLIC "-//W3C//DTD SVG 1.1//EN" "http://www.w3.org/Graphics/SVG/1.1/DTD/svg11.dtd">
<svg version="1.1" id="Layer_1" xmlns="http://www.w3.org/2000/svg" xmlns:xlink="http://www.w3.org/1999/xlink" x="0px" y="0px"
	 width="100px" height="100px" viewBox="0 0 100 100" enable-background="new 0 0 100 100" xml:space="preserve">
<g>
	<path fill="#C6C5A3" d="M100,50C100,77.615,77.611,100,50,100C22.387,100,0,77.615,0,50C0,22.385,22.387,0,50,0
		C77.611,0,100,22.385,100,50z"/>
	<path fill="#D1D1B0" d="M50,0c-9.885,0-19.092,2.88-26.849,7.829c-4.949,7.757-7.827,16.964-7.827,26.848c0,27.613,22.384,50,50,50
		c9.883,0,19.09-2.879,26.85-7.826C97.121,69.091,100,59.888,100,50C100,22.385,77.611,0,50,0z"/>
	<g>
		<circle fill="#B7B284" cx="17.75" cy="43.833" r="9.374"/>
		<path fill="#C1BE99" d="M17.751,34.461c-1.853,0-3.58,0.539-5.035,1.466c-0.924,1.456-1.468,3.18-1.468,5.032
			c0,5.179,4.196,9.373,9.375,9.373c1.852,0,3.577-0.537,5.033-1.468c0.929-1.453,1.468-3.179,1.468-5.031
			C27.124,38.657,22.928,34.461,17.751,34.461z"/>
	</g>
	<g>
		<path fill="#B7B284" d="M65.414,47.867C65.414,55.119,59.531,61,52.277,61c-7.257,0-13.134-5.881-13.134-13.132
			c0-7.256,5.877-13.138,13.134-13.138C59.531,34.729,65.414,40.611,65.414,47.867z"/>
		<path fill="#C1BE99" d="M52.277,34.729c-2.596,0-5.015,0.758-7.054,2.057c-1.297,2.037-2.057,4.455-2.057,7.052
			c0,7.255,5.882,13.136,13.138,13.136c2.598,0,5.014-0.756,7.053-2.055c1.301-2.041,2.057-4.457,2.057-7.052
			C65.414,40.611,59.531,34.729,52.277,34.729z"/>
	</g>
	<g>
		<circle fill="#B7B284" cx="29.177" cy="75.939" r="5.488"/>
		<path fill="#C1BE99" d="M29.177,70.451c-1.085,0-2.096,0.316-2.949,0.859c-0.543,0.852-0.858,1.861-0.858,2.947
			c0,3.035,2.456,5.488,5.489,5.488c1.083,0,2.093-0.316,2.946-0.857c0.544-0.854,0.86-1.863,0.86-2.949
			C34.665,72.908,32.208,70.451,29.177,70.451z"/>
	</g>
	<g>
		<path fill="#B7B284" d="M80.193,21.153c0,3.717-3.012,6.731-6.73,6.731c-3.723,0-6.734-3.014-6.734-6.731
			c0-3.717,3.012-6.732,6.734-6.732C77.182,14.421,80.193,17.436,80.193,21.153z"/>
		<path fill="#C1BE99" d="M73.463,14.421c-1.336,0-2.572,0.387-3.615,1.054c-0.668,1.042-1.055,2.284-1.055,3.617
			c0,3.713,3.014,6.729,6.729,6.729c1.332,0,2.568-0.386,3.617-1.054c0.664-1.043,1.055-2.283,1.055-3.613
			C80.193,17.436,77.182,14.421,73.463,14.421z"/>
	</g>
	<g>
		<circle fill="#B7B284" cx="36.083" cy="13.416" r="3.833"/>
		<path fill="#C1BE99" d="M36.083,9.583c-0.757,0-1.463,0.221-2.055,0.599c-0.38,0.598-0.603,1.301-0.603,2.061
			c0,2.116,1.715,3.833,3.832,3.833c0.76,0,1.465-0.22,2.062-0.601c0.378-0.594,0.598-1.299,0.598-2.059
			C39.917,11.298,38.199,9.583,36.083,9.583z"/>
	</g>
	<g>
		<path fill="#B7B284" d="M93.408,55.138c0,3.861-3.129,6.998-6.99,6.998c-3.865,0-6.994-3.137-6.994-6.998
			c0-3.859,3.129-6.991,6.994-6.991C90.279,48.147,93.408,51.279,93.408,55.138z"/>
		<path fill="#C1BE99" d="M86.418,48.147c-1.385,0-2.674,0.398-3.754,1.098c-0.695,1.081-1.092,2.366-1.092,3.75
			c0,3.859,3.129,6.992,6.986,6.992c1.383,0,2.67-0.4,3.756-1.092c0.697-1.086,1.094-2.375,1.094-3.758
			C93.408,51.279,90.279,48.147,86.418,48.147z"/>
	</g>
	<g>
		<circle fill="#B7B284" cx="65.001" cy="83.826" r="6.026"/>
		<path fill="#C1BE99" d="M65,77.798c-1.191,0-2.299,0.35-3.234,0.943c-0.598,0.936-0.943,2.047-0.943,3.238
			c0,3.326,2.695,6.025,6.025,6.025c1.191,0,2.301-0.346,3.234-0.941c0.6-0.938,0.945-2.047,0.945-3.238
			C71.027,80.498,68.33,77.798,65,77.798z"/>
	</g>
</g>
</svg>
