<?xml version="1.0" encoding="utf-8"?>
<!-- Generator: Adobe Illustrator 15.0.0, SVG Export Plug-In . SVG Version: 6.00 Build 0)  -->
<!DOCTYPE svg PUBLIC "-//W3C//DTD SVG 1.1//EN" "http://www.w3.org/Graphics/SVG/1.1/DTD/svg11.dtd">
<svg version="1.1" id="Layer_1" xmlns="http://www.w3.org/2000/svg" xmlns:xlink="http://www.w3.org/1999/xlink" x="0px" y="0px"
	 width="100px" height="100px" viewBox="0 0 100 100" enable-background="new 0 0 100 100" xml:space="preserve">
<g>
	<circle fill="#FFDA24" cx="49.999" cy="50" r="40.694"/>
	<path fill="#FFDA24" d="M16.495,12.794l-3.701,3.7c-1.916,1.916-1.916,5.046,0,6.962l3.603,3.601
		c2.86-4.181,6.481-7.799,10.663-10.662l-3.605-3.601C21.54,10.878,18.408,10.878,16.495,12.794z M83.505,12.794
		c-1.915-1.914-5.049-1.914-6.963,0l-3.603,3.603c4.181,2.86,7.802,6.479,10.661,10.664l3.604-3.603
		c1.913-1.916,1.913-5.048,0-6.964L83.505,12.794z M52.613,0h-5.229c-2.708,0-4.926,2.215-4.926,4.923v5.108
		C44.905,9.575,47.418,9.307,50,9.307c2.577,0,5.09,0.268,7.536,0.725V4.923C57.536,2.215,55.321,0,52.613,0z M4.923,42.46
		C2.214,42.46,0,44.679,0,47.387v5.227c0,2.713,2.214,4.928,4.923,4.928h5.108C9.572,55.093,9.305,52.578,9.305,50
		s0.267-5.095,0.727-7.541H4.923z M83.601,72.94c-2.858,4.182-6.479,7.801-10.661,10.66l3.603,3.602
		c1.914,1.915,5.048,1.915,6.963,0l3.699-3.696c1.913-1.916,1.913-5.05,0-6.965L83.601,72.94z M95.072,42.46h-5.104
		c0.457,2.445,0.724,4.963,0.724,7.541s-0.267,5.093-0.724,7.541h5.104c2.711,0,4.928-2.215,4.928-4.928v-5.227
		C100,44.679,97.783,42.46,95.072,42.46z M16.395,72.94l-3.601,3.603c-1.916,1.915-1.916,5.047,0,6.963l3.696,3.701
		c1.918,1.912,5.05,1.912,6.965,0l3.603-3.602C22.878,80.743,19.257,77.122,16.395,72.94z M42.459,89.968v5.109
		c0,2.708,2.217,4.923,4.926,4.923h5.229c2.708,0,4.923-2.215,4.923-4.923v-5.109c-2.446,0.46-4.959,0.725-7.536,0.725
		C47.418,90.693,44.905,90.428,42.459,89.968z"/>
	<path fill="#FFA300" d="M42.459,7.908v2.124C44.905,9.575,47.418,9.307,50,9.307c2.577,0,5.09,0.268,7.536,0.725V7.908
		C55.086,7.473,52.575,7.204,50,7.204C47.423,7.204,44.912,7.473,42.459,7.908z M83.601,27.061l1.501-1.501
		c-2.898-4.155-6.508-7.765-10.66-10.661l-1.502,1.499C77.12,19.257,80.741,22.876,83.601,27.061z M7.908,42.46
		C7.468,44.914,7.204,47.423,7.204,50s0.265,5.088,0.704,7.541h2.124C9.572,55.093,9.305,52.578,9.305,50s0.267-5.095,0.727-7.541
		H7.908z M72.939,83.6l1.504,1.5c4.152-2.896,7.763-6.506,10.661-10.659l-1.504-1.501C80.742,77.122,77.122,80.741,72.939,83.6z
		 M92.092,42.46h-2.123c0.457,2.445,0.724,4.963,0.724,7.541s-0.267,5.093-0.724,7.541h2.123c0.436-2.453,0.702-4.964,0.702-7.541
		S92.527,44.914,92.092,42.46z M42.459,89.968v2.124c2.453,0.435,4.964,0.702,7.541,0.702c2.575,0,5.086-0.268,7.536-0.702v-2.124
		c-2.446,0.46-4.959,0.725-7.536,0.725C47.418,90.693,44.905,90.428,42.459,89.968z M16.395,72.94l-1.499,1.501
		c2.898,4.155,6.508,7.768,10.661,10.664l1.501-1.5C22.878,80.743,19.257,77.122,16.395,72.94z M14.896,25.557l1.501,1.5
		c2.86-4.181,6.481-7.799,10.663-10.662l-1.503-1.499C21.404,17.795,17.794,21.404,14.896,25.557z"/>
	<path opacity="0.15" fill="#FFFFFF" d="M76.542,12.794l-3.603,3.603c-4.552-3.114-9.776-5.31-15.403-6.366V4.923
		C57.536,2.215,55.321,0,52.613,0h-5.229c-2.708,0-4.926,2.215-4.926,4.923v5.108c-5.625,1.056-10.847,3.252-15.398,6.363
		l-3.605-3.601c-1.916-1.916-5.047-1.916-6.96,0l-3.701,3.7c-1.916,1.916-1.916,5.046,0,6.962l3.603,3.601
		c-3.114,4.556-5.31,9.775-6.366,15.403H4.923C2.214,42.46,0,44.679,0,47.387v5.227c0,2.713,2.214,4.928,4.923,4.928h5.108
		c1.056,5.625,3.252,10.846,6.363,15.398l-3.601,3.603c-1.916,1.915-1.916,5.047,0,6.963l2.138,2.14l70.711-70.713l-2.139-2.138
		C81.59,10.881,78.456,10.881,76.542,12.794z"/>
</g>
</svg>
