<svg xmlns="http://www.w3.org/2000/svg" width="100" height="100" viewBox="0 0 100 100"><path fill="#C6C5A3" d="M100 50c0 27.615-22.389 50-50 50-27.613 0-50-22.385-50-50S22.387 0 50 0c27.611 0 50 22.385 50 50z"/><path fill="#D1D1B0" d="M50 0a49.75 49.75 0 0 0-26.849 7.829 49.747 49.747 0 0 0-7.827 26.848c0 27.613 22.384 50 50 50a49.78 49.78 0 0 0 26.85-7.826A49.771 49.771 0 0 0 100 50c0-27.615-22.389-50-50-50z"/><circle fill="#B7B284" cx="17.75" cy="43.833" r="9.374"/><path fill="#C1BE99" d="M17.751 34.461a9.34 9.34 0 0 0-5.035 1.466 9.372 9.372 0 0 0 7.907 14.405 9.306 9.306 0 0 0 5.033-1.468 9.308 9.308 0 0 0 1.468-5.031 9.372 9.372 0 0 0-9.373-9.372z"/><path fill="#B7B284" d="M65.414 47.867C65.414 55.119 59.531 61 52.277 61c-7.257 0-13.134-5.881-13.134-13.132 0-7.256 5.877-13.138 13.134-13.138 7.254-.001 13.137 5.881 13.137 13.137z"/><path fill="#C1BE99" d="M52.277 34.729c-2.596 0-5.015.758-7.054 2.057a13.09 13.09 0 0 0-2.057 7.052c0 7.255 5.882 13.136 13.138 13.136 2.598 0 5.014-.756 7.053-2.055a13.07 13.07 0 0 0 2.057-7.052c0-7.256-5.883-13.138-13.137-13.138z"/><circle fill="#B7B284" cx="29.177" cy="75.939" r="5.488"/><path fill="#C1BE99" d="M29.177 70.451a5.473 5.473 0 0 0-2.949.859 5.46 5.46 0 0 0-.858 2.947 5.485 5.485 0 0 0 5.489 5.488 5.484 5.484 0 0 0 2.946-.857 5.488 5.488 0 0 0-4.628-8.437z"/><path fill="#B7B284" d="M80.193 21.153a6.73 6.73 0 0 1-6.73 6.731 6.732 6.732 0 0 1 0-13.463 6.73 6.73 0 0 1 6.73 6.732z"/><path fill="#C1BE99" d="M73.463 14.421a6.676 6.676 0 0 0-3.615 1.054 6.732 6.732 0 0 0 9.291 9.292 6.732 6.732 0 0 0-5.676-10.346z"/><g><circle fill="#B7B284" cx="36.083" cy="13.416" r="3.833"/><path fill="#C1BE99" d="M36.083 9.583c-.757 0-1.463.221-2.055.599a3.833 3.833 0 0 0 5.291 5.293 3.834 3.834 0 0 0-3.236-5.892z"/></g><g><path fill="#B7B284" d="M93.408 55.138c0 3.861-3.129 6.998-6.99 6.998a6.997 6.997 0 0 1-6.994-6.998 6.992 6.992 0 0 1 13.984 0z"/><path fill="#C1BE99" d="M86.418 48.147a6.872 6.872 0 0 0-3.754 1.098 6.9 6.9 0 0 0-1.092 3.75c0 3.859 3.129 6.992 6.986 6.992 1.383 0 2.67-.4 3.756-1.092a6.927 6.927 0 0 0 1.094-3.758 6.991 6.991 0 0 0-6.99-6.99z"/></g><g><circle fill="#B7B284" cx="65.001" cy="83.826" r="6.026"/><path fill="#C1BE99" d="M65 77.798a6.02 6.02 0 0 0-3.234.943 6.024 6.024 0 0 0 8.316 8.322A6.027 6.027 0 0 0 65 77.798z"/></g></svg>