<svg xmlns="http://www.w3.org/2000/svg" width="100" height="100" viewBox="0 0 100 100"><circle fill="#FFDA24" cx="49.999" cy="50" r="40.694"/><path fill="#FFDA24" d="M16.495 12.794l-3.701 3.7a4.935 4.935 0 0 0 0 6.962l3.603 3.601A40.951 40.951 0 0 1 27.06 16.395l-3.605-3.601c-1.915-1.916-5.047-1.916-6.96 0zm67.01 0c-1.915-1.914-5.049-1.914-6.963 0l-3.603 3.603A40.845 40.845 0 0 1 83.6 27.061l3.604-3.603a4.943 4.943 0 0 0 0-6.964l-3.699-3.7zM52.613 0h-5.229c-2.708 0-4.926 2.215-4.926 4.923v5.108c2.447-.456 4.96-.724 7.542-.724 2.577 0 5.09.268 7.536.725V4.923A4.937 4.937 0 0 0 52.613 0zM4.923 42.46C2.214 42.46 0 44.679 0 47.387v5.227c0 2.713 2.214 4.928 4.923 4.928h5.108c-.459-2.449-.726-4.964-.726-7.542s.267-5.095.727-7.541H4.923zm78.678 30.48A40.83 40.83 0 0 1 72.94 83.6l3.603 3.602c1.914 1.915 5.048 1.915 6.963 0l3.699-3.696c1.913-1.916 1.913-5.05 0-6.965l-3.604-3.601zm11.471-30.48h-5.104c.457 2.445.724 4.963.724 7.541s-.267 5.093-.724 7.541h5.104A4.94 4.94 0 0 0 100 52.614v-5.227c0-2.708-2.217-4.927-4.928-4.927zM16.395 72.94l-3.601 3.603a4.936 4.936 0 0 0 0 6.963l3.696 3.701c1.918 1.912 5.05 1.912 6.965 0l3.603-3.602A40.993 40.993 0 0 1 16.395 72.94zm26.064 17.028v5.109c0 2.708 2.217 4.923 4.926 4.923h5.229a4.937 4.937 0 0 0 4.923-4.923v-5.109c-2.446.46-4.959.725-7.536.725-2.583 0-5.096-.265-7.542-.725z"/><path fill="#FFA300" d="M42.459 7.908v2.124c2.446-.457 4.959-.725 7.541-.725 2.577 0 5.09.268 7.536.725V7.908c-2.45-.435-4.961-.704-7.536-.704-2.577 0-5.088.269-7.541.704zm41.142 19.153l1.501-1.501a42.97 42.97 0 0 0-10.66-10.661l-1.502 1.499a40.856 40.856 0 0 1 10.661 10.663zM7.908 42.46c-.44 2.454-.704 4.963-.704 7.54s.265 5.088.704 7.541h2.124c-.46-2.448-.727-4.963-.727-7.541s.267-5.095.727-7.541H7.908zM72.939 83.6l1.504 1.5a43 43 0 0 0 10.661-10.659L83.6 72.94A40.814 40.814 0 0 1 72.939 83.6zm19.153-41.14h-2.123c.457 2.445.724 4.963.724 7.541s-.267 5.093-.724 7.541h2.123c.436-2.453.702-4.964.702-7.541s-.267-5.087-.702-7.541zM42.459 89.968v2.124c2.453.435 4.964.702 7.541.702 2.575 0 5.086-.268 7.536-.702v-2.124c-2.446.46-4.959.725-7.536.725a40.71 40.71 0 0 1-7.541-.725zM16.395 72.94l-1.499 1.501a42.97 42.97 0 0 0 10.661 10.664l1.501-1.5A40.993 40.993 0 0 1 16.395 72.94zm-1.499-47.383l1.501 1.5A40.951 40.951 0 0 1 27.06 16.395l-1.503-1.499a43.042 43.042 0 0 0-10.661 10.661z"/><path opacity=".15" fill="#FFF" d="M76.542 12.794l-3.603 3.603a40.47 40.47 0 0 0-15.403-6.366V4.923A4.937 4.937 0 0 0 52.613 0h-5.229c-2.708 0-4.926 2.215-4.926 4.923v5.108a40.496 40.496 0 0 0-15.398 6.363l-3.605-3.601c-1.916-1.916-5.047-1.916-6.96 0l-3.701 3.7a4.935 4.935 0 0 0 0 6.962l3.603 3.601a40.489 40.489 0 0 0-6.366 15.403H4.923C2.214 42.46 0 44.679 0 47.387v5.227c0 2.713 2.214 4.928 4.923 4.928h5.108a40.502 40.502 0 0 0 6.363 15.398l-3.601 3.603a4.936 4.936 0 0 0 0 6.963l2.138 2.14 70.711-70.713-2.139-2.138c-1.913-1.914-5.047-1.914-6.961-.001z"/></svg>