<?xml version="1.0" encoding="utf-8"?>
<!-- Generator: Adobe Illustrator 15.0.0, SVG Export Plug-In . SVG Version: 6.00 Build 0)  -->
<!DOCTYPE svg PUBLIC "-//W3C//DTD SVG 1.1//EN" "http://www.w3.org/Graphics/SVG/1.1/DTD/svg11.dtd">
<svg version="1.1" id="Layer_1" xmlns="http://www.w3.org/2000/svg" xmlns:xlink="http://www.w3.org/1999/xlink" x="0px" y="0px"
	 width="100px" height="63.42px" viewBox="0 0 100 63.42" enable-background="new 0 0 100 63.42" xml:space="preserve">
<g>
	<path fill="#FFFFFF" d="M55.33,0C43.657,0,33.777,7.613,30.348,18.14c-6.563,1.459-11.914,6.094-14.368,12.219
		C7.105,30.66,0,37.928,0,46.873c0,8.935,7.082,16.189,15.932,16.517v0.03h39.707V0.014C55.535,0.01,55.435,0,55.33,0z"/>
	<path fill="#F2F4F9" d="M81.399,23.059C79.817,10.169,68.92,0.166,55.639,0.014V63.42h25.026v-0.048
		C91.421,62.906,100,54.065,100,43.196C100,32.577,91.806,23.887,81.399,23.059z"/>
</g>
</svg>
