<svg xmlns="http://www.w3.org/2000/svg" width="100" height="43.885" viewBox="0 0 100 43.885"><path fill="#00E1FF" d="M32.32.077l-20.739 5.57-1.758.472a14.184 14.184 0 0 0-5.632 3.454c-5.587 5.587-5.59 14.645 0 20.23L33.691.304c-.292-.289-.769-.388-1.371-.227z"/><path fill="#00C6F4" d="M27.874 24.18l.475-1.773 5.57-20.737c.162-.594.062-1.076-.228-1.365l-29.5 29.499c5.584 5.582 14.642 5.582 20.228 0a14.233 14.233 0 0 0 3.455-5.624z"/><path fill="#00E1FF" d="M98.327 4.37l-20.74 5.569-1.761.473a14.233 14.233 0 0 0-5.63 3.453c-5.587 5.588-5.587 14.646 0 20.231l29.499-29.5c-.289-.288-.767-.388-1.368-.226z"/><path fill="#00C6F4" d="M93.88 28.477l.473-1.778 5.57-20.729c.161-.603.062-1.084-.228-1.373l-29.499 29.5c5.586 5.588 14.645 5.588 20.23 0a14.222 14.222 0 0 0 3.454-5.62z"/><g><path fill="#00E1FF" d="M53.782 23.301l-12.585 3.38-1.072.285a8.617 8.617 0 0 0-3.417 2.099 8.688 8.688 0 0 0 0 12.279L54.613 23.44c-.175-.178-.467-.233-.831-.139z"/><path fill="#00C6F4" d="M51.084 37.928l.286-1.074 3.379-12.587c.097-.36.039-.655-.136-.827L36.707 41.344a8.686 8.686 0 0 0 12.278 0 8.64 8.64 0 0 0 2.099-3.416z"/></g></svg>