<?xml version="1.0" encoding="utf-8"?>
<!-- Generator: Adobe Illustrator 15.0.0, SVG Export Plug-In . SVG Version: 6.00 Build 0)  -->
<!DOCTYPE svg PUBLIC "-//W3C//DTD SVG 1.1//EN" "http://www.w3.org/Graphics/SVG/1.1/DTD/svg11.dtd">
<svg version="1.1" id="Layer_1" xmlns="http://www.w3.org/2000/svg" xmlns:xlink="http://www.w3.org/1999/xlink" x="0px" y="0px"
	 width="100px" height="80.132px" viewBox="0 0 100 80.132" enable-background="new 0 0 100 80.132" xml:space="preserve">
<g>
	<path fill="#FFFFFF" d="M55.329,0C43.656,0,33.777,7.614,30.348,18.14c-6.564,1.459-11.915,6.093-14.369,12.218
		C7.105,30.659,0,37.928,0,46.872c0,8.935,7.081,16.188,15.932,16.517v0.029h39.705V0.015C55.535,0.011,55.434,0,55.329,0z"/>
	<path fill="#F2F4F9" d="M81.4,23.059C79.817,10.168,68.919,0.167,55.637,0.015v63.403h25.026v-0.047
		C91.421,62.904,100,54.065,100,43.196C100,32.577,91.807,23.886,81.4,23.059z"/>
	<g>
		<g>
			<path fill="#00E1FF" d="M47.891,51.219c0,0.626-0.512,1.134-1.136,1.134H10.081c-0.625,0-1.136-0.508-1.136-1.134v-2.464
				c0-0.625,0.51-1.138,1.136-1.138h36.673c0.625,0,1.136,0.513,1.136,1.138V51.219z"/>
		</g>
		<g>
			<path fill="#00E1FF" d="M13.902,76.528c0-0.624,0.514-1.138,1.138-1.138h36.673c0.624,0,1.134,0.514,1.134,1.138v2.461
				c0,0.624-0.51,1.143-1.134,1.143H15.04c-0.625,0-1.138-0.519-1.138-1.143V76.528z"/>
		</g>
		<g>
			<path fill="#00E1FF" d="M75.937,64.821c0,0.626-0.51,1.134-1.139,1.134H50.73c-0.625,0-1.137-0.508-1.137-1.134v-2.464
				c0-0.625,0.512-1.136,1.137-1.136h24.068c0.629,0,1.139,0.511,1.139,1.136V64.821z"/>
		</g>
		<g>
			<path fill="#00E1FF" d="M61.942,76.528c0-0.624,0.509-1.134,1.138-1.134h24.068c0.625,0,1.136,0.51,1.136,1.134v2.465
				c0,0.625-0.511,1.137-1.136,1.137H63.08c-0.629,0-1.138-0.512-1.138-1.137V76.528z"/>
		</g>
		<g>
			<path fill="#00E1FF" d="M21.275,64.86c0,0.603,0.491,1.095,1.095,1.095h14.514c0.601,0,1.095-0.492,1.095-1.095v-2.541
				c0-0.604-0.495-1.096-1.095-1.096H22.37c-0.604,0-1.095,0.492-1.095,1.096V64.86z"/>
		</g>
		<g>
			<path fill="#00E1FF" d="M76.043,51.26c0,0.604,0.492,1.096,1.095,1.096h14.515c0.604,0,1.096-0.491,1.096-1.096v-2.543
				c0-0.604-0.492-1.096-1.096-1.096H77.138c-0.603,0-1.095,0.492-1.095,1.096V51.26z"/>
		</g>
		<g>
			<path fill="#00E1FF" d="M57.695,51.26c0,0.604,0.492,1.096,1.096,1.096h4.107c0.603,0,1.096-0.491,1.096-1.096v-2.543
				c0-0.604-0.493-1.096-1.096-1.096h-4.107c-0.604,0-1.096,0.492-1.096,1.096V51.26z"/>
		</g>
	</g>
	<path opacity="0.2" fill="#122C3D" d="M63.994,48.717v2.543c0,0.604-0.493,1.096-1.096,1.096h-4.107
		c-0.299,0-0.574-0.122-0.771-0.319l9.185,9.186h7.593c0.629,0,1.139,0.511,1.139,1.136v1.061h3.152L63.795,48.123
		C63.91,48.298,63.994,48.494,63.994,48.717z M47.891,48.755v2.464c0,0.626-0.512,1.134-1.136,1.134H10.081
		c-0.3,0-0.572-0.121-0.774-0.314l-0.013,0.016l11.364,11.364h0.617v-1.099c0-0.604,0.491-1.096,1.095-1.096h14.514
		c0.601,0,1.095,0.492,1.095,1.096v1.099h11.614v-1.061c0-0.625,0.512-1.136,1.137-1.136h10.041L47.674,48.125
		C47.801,48.31,47.891,48.518,47.891,48.755z M57.979,51.975l-0.009,0.011l0.044,0.045C58,52.015,57.993,51.992,57.979,51.975z
		 M92.576,48.118l-0.03,0.004c0.115,0.174,0.202,0.369,0.202,0.595v2.543c0,0.604-0.492,1.096-1.096,1.096H77.138
		c-0.256,0-0.483-0.103-0.672-0.252l-0.013,0.019l10.101,10.1c4.661-1.652,8.523-4.969,10.896-9.231L92.576,48.118z"/>
</g>
</svg>
