<svg xmlns="http://www.w3.org/2000/svg" width="100" height="80.132" viewBox="0 0 100 80.132"><path fill="#FFF" d="M55.329 0C43.656 0 33.777 7.614 30.348 18.14c-6.564 1.459-11.915 6.093-14.369 12.218C7.105 30.659 0 37.928 0 46.872c0 8.935 7.081 16.188 15.932 16.517v.029h39.705V.015C55.535.011 55.434 0 55.329 0z"/><path fill="#F2F4F9" d="M81.4 23.059C79.817 10.168 68.919.167 55.637.015v63.403h25.026v-.047C91.421 62.904 100 54.065 100 43.196c0-10.619-8.193-19.31-18.6-20.137z"/><path fill="#00E1FF" d="M47.891 51.219c0 .626-.512 1.134-1.136 1.134H10.081a1.137 1.137 0 0 1-1.136-1.134v-2.464c0-.625.51-1.138 1.136-1.138h36.673a1.14 1.14 0 0 1 1.136 1.138v2.464zM13.902 76.528c0-.624.514-1.138 1.138-1.138h36.673a1.14 1.14 0 0 1 1.134 1.138v2.461c0 .624-.51 1.143-1.134 1.143H15.04a1.147 1.147 0 0 1-1.138-1.143v-2.461zM75.937 64.821c0 .626-.51 1.134-1.139 1.134H50.73a1.138 1.138 0 0 1-1.137-1.134v-2.464a1.14 1.14 0 0 1 1.137-1.136h24.068a1.14 1.14 0 0 1 1.139 1.136v2.464zM61.942 76.528c0-.624.509-1.134 1.138-1.134h24.068c.625 0 1.136.51 1.136 1.134v2.465a1.14 1.14 0 0 1-1.136 1.137H63.08a1.14 1.14 0 0 1-1.138-1.137v-2.465zM21.275 64.86c0 .603.491 1.095 1.095 1.095h14.514c.601 0 1.095-.492 1.095-1.095v-2.541a1.1 1.1 0 0 0-1.095-1.096H22.37c-.604 0-1.095.492-1.095 1.096v2.541zM76.043 51.26c0 .604.492 1.096 1.095 1.096h14.515c.604 0 1.096-.491 1.096-1.096v-2.543c0-.604-.492-1.096-1.096-1.096H77.138c-.603 0-1.095.492-1.095 1.096v2.543zM57.695 51.26c0 .604.492 1.096 1.096 1.096h4.107c.603 0 1.096-.491 1.096-1.096v-2.543c0-.604-.493-1.096-1.096-1.096h-4.107c-.604 0-1.096.492-1.096 1.096v2.543z"/><path opacity=".2" fill="#122C3D" d="M63.994 48.717v2.543c0 .604-.493 1.096-1.096 1.096h-4.107c-.299 0-.574-.122-.771-.319l9.185 9.186h7.593a1.14 1.14 0 0 1 1.139 1.136v1.061h3.152L63.795 48.123c.115.175.199.371.199.594zm-16.103.038v2.464c0 .626-.512 1.134-1.136 1.134H10.081c-.3 0-.572-.121-.774-.314l-.013.016 11.364 11.364h.617V62.32c0-.604.491-1.096 1.095-1.096h14.514c.601 0 1.095.492 1.095 1.096v1.099h11.614v-1.061a1.14 1.14 0 0 1 1.137-1.136h10.041L47.674 48.125c.127.185.217.393.217.63zm10.088 3.22l-.009.011.044.045c-.014-.016-.021-.039-.035-.056zm34.597-3.857l-.03.004c.115.174.202.369.202.595v2.543c0 .604-.492 1.096-1.096 1.096H77.138c-.256 0-.483-.103-.672-.252l-.013.019 10.101 10.1a20.239 20.239 0 0 0 10.896-9.231l-4.874-4.874z"/></svg>