<svg xmlns="http://www.w3.org/2000/svg" width="99.999" height="59.676" viewBox="0 0 99.999 59.676"><path fill="#83BA36" d="M25.775 25.648c-.499 22.69 24.438 26.868 27.098 27.423 8.378 1.3 43.874 5.732 47.126 6.604 0 0-28.329-30.848-70.634-47.807-3.382 7.047-3.497 11.44-3.59 13.78z"/><path fill="#98D24D" d="M1.466 6.267c13.527-1.371 26.836 5.219 27.898 5.603 42.305 16.959 70.634 47.807 70.634 47.807-1.96-3.852-2.649-8.657-3.855-17.572-2.361-16.926-9.307-26.168-11.718-29.05-26.233-26.499-51.357-4.806-54.422-2.681C12.327 2.871.644 4.781.644 4.781s-.775.029-.624.742c.179.816.768.787 1.446.744z"/></svg>