<?xml version="1.0" encoding="utf-8"?>
<!-- Generator: Adobe Illustrator 15.0.0, SVG Export Plug-In . SVG Version: 6.00 Build 0)  -->
<!DOCTYPE svg PUBLIC "-//W3C//DTD SVG 1.1//EN" "http://www.w3.org/Graphics/SVG/1.1/DTD/svg11.dtd">
<svg version="1.1" id="Layer_1" xmlns="http://www.w3.org/2000/svg" xmlns:xlink="http://www.w3.org/1999/xlink" x="0px" y="0px"
	 width="99.999px" height="59.676px" viewBox="0 0 99.999 59.676" enable-background="new 0 0 99.999 59.676" xml:space="preserve">
<g>
	<g>
		<g>
			<path fill="#83BA36" d="M25.775,25.648c-0.499,22.69,24.438,26.868,27.098,27.423c8.378,1.3,43.874,5.732,47.126,6.604
				c0,0-28.329-30.848-70.634-47.807C25.983,18.915,25.868,23.308,25.775,25.648z"/>
			<path fill="#98D24D" d="M1.466,6.267c13.527-1.371,26.836,5.219,27.898,5.603c42.305,16.959,70.634,47.807,70.634,47.807
				c-1.96-3.852-2.649-8.657-3.855-17.572c-2.361-16.926-9.307-26.168-11.718-29.05c-26.233-26.499-51.357-4.806-54.422-2.681
				C12.327,2.871,0.644,4.781,0.644,4.781S-0.131,4.81,0.02,5.523C0.199,6.339,0.788,6.31,1.466,6.267z"/>
		</g>
	</g>
</g>
</svg>
