<?xml version="1.0" encoding="utf-8"?>
<!-- Generator: Adobe Illustrator 15.0.0, SVG Export Plug-In . SVG Version: 6.00 Build 0)  -->
<!DOCTYPE svg PUBLIC "-//W3C//DTD SVG 1.1//EN" "http://www.w3.org/Graphics/SVG/1.1/DTD/svg11.dtd">
<svg version="1.1" id="Layer_1" xmlns="http://www.w3.org/2000/svg" xmlns:xlink="http://www.w3.org/1999/xlink" x="0px" y="0px"
	 width="100px" height="84.538px" viewBox="0 0 100 84.538" enable-background="new 0 0 100 84.538" xml:space="preserve">
<g>
	<g>
		<circle fill="#C6C5A3" cx="58.633" cy="41.367" r="41.367"/>
		<path fill="#D1D1B0" d="M58.634,0C50.455,0,42.839,2.383,36.42,6.477c-4.095,6.417-6.476,14.035-6.476,22.213
			c0,22.847,18.52,41.366,41.368,41.366c8.178,0,15.794-2.382,22.215-6.474C97.618,57.163,100,49.547,100,41.367
			C100,18.52,81.48,0,58.634,0z"/>
		<g>
			<circle fill="#B7B284" cx="31.952" cy="36.266" r="7.755"/>
			<path fill="#C1BE99" d="M31.953,28.511c-1.535,0-2.961,0.446-4.167,1.213c-0.763,1.203-1.212,2.631-1.212,4.163
				c0,4.286,3.469,7.754,7.756,7.754c1.532,0,2.96-0.444,4.163-1.213c0.769-1.203,1.215-2.631,1.215-4.163
				C39.707,31.983,36.236,28.511,31.953,28.511z"/>
		</g>
		<g>
			<circle fill="#B7B284" cx="60.518" cy="39.602" r="10.868"/>
			<path fill="#C1BE99" d="M60.518,28.732c-2.149,0-4.149,0.627-5.834,1.703c-1.075,1.686-1.703,3.686-1.703,5.834
				c0,6.001,4.867,10.868,10.868,10.868c2.149,0,4.147-0.625,5.835-1.701c1.076-1.687,1.703-3.687,1.703-5.834
				C71.387,33.599,66.52,28.732,60.518,28.732z"/>
		</g>
		<g>
			<circle fill="#B7B284" cx="41.405" cy="62.828" r="4.541"/>
			<path fill="#C1BE99" d="M41.406,58.286c-0.9,0-1.736,0.262-2.441,0.711c-0.448,0.705-0.708,1.541-0.708,2.439
				c0,2.511,2.03,4.542,4.541,4.542c0.896,0,1.731-0.262,2.439-0.711c0.448-0.707,0.71-1.542,0.71-2.439
				C45.946,60.321,43.912,58.286,41.406,58.286z"/>
		</g>
		<g>
			<circle fill="#B7B284" cx="78.043" cy="17.5" r="5.569"/>
			<path fill="#C1BE99" d="M78.044,11.931c-1.103,0-2.128,0.32-2.99,0.873c-0.553,0.862-0.872,1.888-0.872,2.991
				c0,3.073,2.495,5.567,5.567,5.567c1.104,0,2.125-0.318,2.991-0.871c0.553-0.863,0.872-1.888,0.872-2.99
				C83.612,14.426,81.121,11.931,78.044,11.931z"/>
		</g>
		<g>
			<circle fill="#B7B284" cx="47.12" cy="11.099" r="3.171"/>
			<path fill="#C1BE99" d="M47.12,7.928c-0.628,0-1.211,0.183-1.7,0.496c-0.316,0.495-0.498,1.077-0.498,1.706
				c0,1.75,1.419,3.171,3.169,3.171c0.629,0,1.213-0.183,1.706-0.497c0.313-0.492,0.495-1.076,0.495-1.704
				C50.291,9.347,48.871,7.928,47.12,7.928z"/>
		</g>
		<g>
			<path fill="#B7B284" d="M94.549,45.617c0,3.194-2.59,5.79-5.785,5.79c-3.197,0-5.786-2.596-5.786-5.79
				c0-3.191,2.589-5.783,5.786-5.783C91.959,39.834,94.549,42.425,94.549,45.617z"/>
			<path fill="#C1BE99" d="M88.764,39.834c-1.146,0-2.211,0.33-3.108,0.908c-0.572,0.894-0.901,1.957-0.901,3.103
				c0,3.194,2.589,5.784,5.782,5.784c1.143,0,2.209-0.331,3.105-0.901c0.578-0.9,0.907-1.966,0.907-3.111
				C94.549,42.425,91.959,39.834,88.764,39.834z"/>
		</g>
		<g>
			<circle fill="#B7B284" cx="71.044" cy="69.352" r="4.987"/>
			<path fill="#C1BE99" d="M71.045,64.366c-0.986,0-1.904,0.288-2.679,0.781c-0.494,0.772-0.778,1.692-0.778,2.678
				c0,2.754,2.231,4.985,4.985,4.985c0.984,0,1.903-0.286,2.676-0.779c0.494-0.774,0.782-1.693,0.782-2.679
				C76.031,66.599,73.798,64.366,71.045,64.366z"/>
		</g>
	</g>
	<g>
		<path fill="#FFFFFF" d="M54.254,22.352c-11.441,0-21.13,7.468-24.496,17.788c-6.437,1.432-11.68,5.976-14.088,11.98
			C6.968,52.416,0,59.542,0,68.311c0,8.762,6.946,15.876,15.625,16.197v0.029h38.931V22.366
			C54.456,22.364,54.36,22.352,54.254,22.352z"/>
		<path fill="#F2F4F9" d="M79.821,44.96c-1.554-12.636-12.238-22.446-25.266-22.594v62.171h24.543v-0.047
			c10.545-0.458,18.958-9.125,18.958-19.781C98.057,54.294,90.02,45.773,79.821,44.96z"/>
	</g>
</g>
</svg>
