<?xml version="1.0" encoding="utf-8"?>
<!-- Generator: Adobe Illustrator 15.0.0, SVG Export Plug-In . SVG Version: 6.00 Build 0)  -->
<!DOCTYPE svg PUBLIC "-//W3C//DTD SVG 1.1//EN" "http://www.w3.org/Graphics/SVG/1.1/DTD/svg11.dtd">
<svg version="1.1" id="Layer_1" xmlns="http://www.w3.org/2000/svg" xmlns:xlink="http://www.w3.org/1999/xlink" x="0px" y="0px"
	 width="100px" height="84.755px" viewBox="0 0 100 84.755" enable-background="new 0 0 100 84.755" xml:space="preserve">
<g>
	<g>
		<path fill="#FFDA24" d="M92.156,42.143c0,18.942-15.354,34.3-34.297,34.3c-18.94,0-34.299-15.357-34.299-34.3
			c0-18.94,15.359-34.299,34.299-34.299C76.802,7.844,92.156,23.203,92.156,42.143z"/>
		<path fill="#FFDA24" d="M29.619,10.785L26.5,13.903c-1.613,1.614-1.613,4.251,0,5.867l3.04,3.036
			c2.408-3.525,5.462-6.575,8.983-8.985l-3.036-3.036C33.873,9.169,31.235,9.169,29.619,10.785z M86.101,10.785
			c-1.62-1.611-4.258-1.611-5.873,0l-3.037,3.038c3.526,2.408,6.58,5.46,8.988,8.985l3.036-3.036c1.615-1.615,1.615-4.253,0-5.867
			L86.101,10.785z M60.064,0h-4.405c-2.287,0-4.154,1.867-4.154,4.149v4.308c2.063-0.388,4.181-0.613,6.354-0.613
			s4.292,0.225,6.354,0.613V4.149C64.213,1.867,62.346,0,60.064,0z M19.867,35.789c-2.282,0-4.153,1.867-4.153,4.152v4.407
			c0,2.282,1.871,4.149,4.153,4.149h4.304c-0.386-2.062-0.611-4.182-0.611-6.354c0-2.172,0.225-4.292,0.611-6.354H19.867z
			 M86.179,61.478c-2.408,3.526-5.462,6.575-8.988,8.987l3.037,3.034c1.615,1.613,4.258,1.613,5.873,0l3.114-3.116
			c1.615-1.615,1.615-4.255,0-5.871L86.179,61.478z M95.85,35.789h-4.305c0.385,2.062,0.61,4.182,0.61,6.354
			c0,2.173-0.226,4.293-0.61,6.354h4.305c2.282,0,4.149-1.867,4.149-4.149v-4.407C100,37.656,98.132,35.789,95.85,35.789z
			 M29.537,61.478L26.5,64.515c-1.613,1.615-1.613,4.255,0,5.868l3.119,3.119c1.616,1.612,4.253,1.612,5.869,0l3.036-3.037
			C35.003,68.057,31.949,65.004,29.537,61.478z M51.504,75.832v4.306c0,2.282,1.867,4.149,4.154,4.149h4.405
			c2.282,0,4.149-1.867,4.149-4.149v-4.306c-2.063,0.386-4.181,0.611-6.354,0.611S53.567,76.217,51.504,75.832z"/>
		<path fill="#FFA300" d="M51.504,6.666v1.791c2.063-0.388,4.181-0.613,6.354-0.613s4.292,0.225,6.354,0.613V6.666
			c-2.066-0.369-4.181-0.594-6.354-0.594C55.689,6.072,53.571,6.297,51.504,6.666z M86.179,22.808l1.265-1.264
			c-2.442-3.502-5.483-6.545-8.982-8.987l-1.271,1.267C80.717,16.231,83.771,19.283,86.179,22.808z M22.379,35.789
			c-0.369,2.066-0.591,4.184-0.591,6.354s0.222,4.288,0.591,6.354h1.791c-0.386-2.062-0.611-4.182-0.611-6.354
			c0-2.172,0.225-4.292,0.611-6.354H22.379z M77.191,70.465l1.271,1.264c3.499-2.442,6.54-5.484,8.982-8.986l-1.265-1.265
			C83.771,65.004,80.717,68.053,77.191,70.465z M93.334,35.789h-1.789c0.385,2.062,0.61,4.182,0.61,6.354
			c0,2.173-0.226,4.293-0.61,6.354h1.789c0.368-2.066,0.593-4.185,0.593-6.354S93.703,37.855,93.334,35.789z M51.504,75.832v1.79
			c2.066,0.368,4.185,0.593,6.354,0.593c2.174,0,4.288-0.225,6.354-0.593v-1.79c-2.063,0.386-4.181,0.611-6.354,0.611
			S53.567,76.217,51.504,75.832z M29.537,61.478l-1.265,1.265c2.443,3.502,5.488,6.549,8.987,8.988l1.264-1.266
			C35.003,68.057,31.949,65.004,29.537,61.478z M28.272,21.542l1.269,1.265c2.408-3.525,5.462-6.575,8.983-8.985l-1.264-1.267
			C33.76,14.999,30.715,18.042,28.272,21.542z"/>
		<path opacity="0.15" fill="#FFFFFF" d="M80.228,10.785l-3.037,3.038c-3.837-2.629-8.234-4.476-12.978-5.366V4.149
			C64.213,1.867,62.346,0,60.064,0h-4.405c-2.287,0-4.154,1.867-4.154,4.149v4.308c-4.742,0.89-9.143,2.737-12.981,5.364
			l-3.036-3.036c-1.615-1.616-4.253-1.616-5.869,0L26.5,13.903c-1.613,1.614-1.613,4.251,0,5.867l3.04,3.036
			c-2.629,3.84-4.48,8.24-5.37,12.983h-4.304c-2.282,0-4.153,1.867-4.153,4.152v4.407c0,2.282,1.871,4.149,4.153,4.149h4.304
			c0.89,4.742,2.741,9.144,5.366,12.98L26.5,64.515c-1.613,1.615-1.613,4.255,0,5.868l1.802,1.804l59.6-59.6l-1.802-1.802
			C84.481,9.174,81.843,9.174,80.228,10.785z"/>
	</g>
	<g>
		<path fill="#FFFFFF" d="M53.688,23.221c-11.322,0-20.911,7.389-24.242,17.601c-6.369,1.417-11.559,5.912-13.94,11.855
			C6.896,52.969,0,60.022,0,68.7c0,8.67,6.874,15.708,15.46,16.027v0.028h38.527v-61.52C53.887,23.233,53.788,23.221,53.688,23.221z
			"/>
		<path fill="#F2F4F9" d="M78.981,45.593c-1.533-12.504-12.104-22.21-24.994-22.358v61.52H78.27v-0.047
			c10.434-0.452,18.759-9.029,18.759-19.573C97.029,54.83,89.077,46.396,78.981,45.593z"/>
	</g>
</g>
</svg>
