<svg xmlns="http://www.w3.org/2000/svg" width="100" height="84.538" viewBox="0 0 100 84.538"><circle fill="#C6C5A3" cx="58.633" cy="41.367" r="41.367"/><path fill="#D1D1B0" d="M58.634 0A41.168 41.168 0 0 0 36.42 6.477a41.153 41.153 0 0 0-6.476 22.213c0 22.847 18.52 41.366 41.368 41.366a41.194 41.194 0 0 0 22.215-6.474A41.191 41.191 0 0 0 100 41.367C100 18.52 81.48 0 58.634 0z"/><circle fill="#B7B284" cx="31.952" cy="36.266" r="7.755"/><path fill="#C1BE99" d="M31.953 28.511a7.732 7.732 0 0 0-4.167 1.213 7.752 7.752 0 0 0-1.212 4.163 7.75 7.75 0 0 0 7.756 7.754c1.532 0 2.96-.444 4.163-1.213a7.703 7.703 0 0 0 1.215-4.163 7.755 7.755 0 0 0-7.755-7.754z"/><circle fill="#B7B284" cx="60.518" cy="39.602" r="10.868"/><path fill="#C1BE99" d="M60.518 28.732c-2.149 0-4.149.627-5.834 1.703a10.816 10.816 0 0 0-1.703 5.834c0 6.001 4.867 10.868 10.868 10.868 2.149 0 4.147-.625 5.835-1.701a10.812 10.812 0 0 0 1.703-5.834c0-6.003-4.867-10.87-10.869-10.87z"/><circle fill="#B7B284" cx="41.405" cy="62.828" r="4.541"/><path fill="#C1BE99" d="M41.406 58.286c-.9 0-1.736.262-2.441.711a4.531 4.531 0 0 0-.708 2.439 4.538 4.538 0 0 0 6.98 3.831 4.544 4.544 0 0 0-3.831-6.981z"/><circle fill="#B7B284" cx="78.043" cy="17.5" r="5.569"/><path fill="#C1BE99" d="M78.044 11.931c-1.103 0-2.128.32-2.99.873a5.57 5.57 0 0 0 7.686 7.687 5.569 5.569 0 0 0-4.696-8.56z"/><g><circle fill="#B7B284" cx="47.12" cy="11.099" r="3.171"/><path fill="#C1BE99" d="M47.12 7.928c-.628 0-1.211.183-1.7.496a3.171 3.171 0 0 0 4.377 4.38 3.172 3.172 0 0 0-2.677-4.876z"/></g><g><path fill="#B7B284" d="M94.549 45.617a5.79 5.79 0 0 1-5.785 5.79 5.79 5.79 0 0 1-5.786-5.79 5.785 5.785 0 0 1 11.571 0z"/><path fill="#C1BE99" d="M88.764 39.834a5.71 5.71 0 0 0-3.108.908 5.731 5.731 0 0 0-.901 3.103 5.783 5.783 0 0 0 8.887 4.883 5.785 5.785 0 0 0-4.878-8.894z"/></g><g><circle fill="#B7B284" cx="71.044" cy="69.352" r="4.987"/><path fill="#C1BE99" d="M71.045 64.366c-.986 0-1.904.288-2.679.781a4.952 4.952 0 0 0-.778 2.678 4.984 4.984 0 0 0 7.661 4.206 4.987 4.987 0 0 0-4.204-7.665z"/></g><g><path fill="#FFF" d="M54.254 22.352c-11.441 0-21.13 7.468-24.496 17.788-6.437 1.432-11.68 5.976-14.088 11.98C6.968 52.416 0 59.542 0 68.311c0 8.762 6.946 15.876 15.625 16.197v.029h38.931V22.366c-.1-.002-.196-.014-.302-.014z"/><path fill="#F2F4F9" d="M79.821 44.96c-1.554-12.636-12.238-22.446-25.266-22.594v62.171h24.543v-.047c10.545-.458 18.958-9.125 18.958-19.781.001-10.415-8.036-18.936-18.235-19.749z"/></g></svg>