<svg xmlns="http://www.w3.org/2000/svg" width="100" height="84.755" viewBox="0 0 100 84.755"><path fill="#FFDA24" d="M92.156 42.143c0 18.942-15.354 34.3-34.297 34.3-18.94 0-34.299-15.357-34.299-34.3 0-18.94 15.359-34.299 34.299-34.299 18.943 0 34.297 15.359 34.297 34.299z"/><path fill="#FFDA24" d="M29.619 10.785L26.5 13.903a4.162 4.162 0 0 0 0 5.867l3.04 3.036a34.45 34.45 0 0 1 8.983-8.985l-3.036-3.036a4.157 4.157 0 0 0-5.868 0zm56.482 0a4.173 4.173 0 0 0-5.873 0l-3.037 3.038a34.363 34.363 0 0 1 8.988 8.985l3.036-3.036a4.158 4.158 0 0 0 0-5.867l-3.114-3.12zM60.064 0h-4.405a4.162 4.162 0 0 0-4.154 4.149v4.308c2.063-.388 4.181-.613 6.354-.613s4.292.225 6.354.613V4.149A4.161 4.161 0 0 0 60.064 0zM19.867 35.789a4.165 4.165 0 0 0-4.153 4.152v4.407c0 2.282 1.871 4.149 4.153 4.149h4.304a34.478 34.478 0 0 1-.611-6.354c0-2.172.225-4.292.611-6.354h-4.304zm66.312 25.689a34.416 34.416 0 0 1-8.988 8.987l3.037 3.034a4.169 4.169 0 0 0 5.873 0l3.114-3.116a4.163 4.163 0 0 0 0-5.871l-3.036-3.034zm9.671-25.689h-4.305c.385 2.062.61 4.182.61 6.354 0 2.173-.226 4.293-.61 6.354h4.305a4.161 4.161 0 0 0 4.149-4.149v-4.407a4.161 4.161 0 0 0-4.149-4.152zM29.537 61.478L26.5 64.515a4.163 4.163 0 0 0 0 5.868l3.119 3.119a4.166 4.166 0 0 0 5.869 0l3.036-3.037a34.488 34.488 0 0 1-8.987-8.987zm21.967 14.354v4.306a4.162 4.162 0 0 0 4.154 4.149h4.405a4.161 4.161 0 0 0 4.149-4.149v-4.306c-2.063.386-4.181.611-6.354.611s-4.291-.226-6.354-.611z"/><path fill="#FFA300" d="M51.504 6.666v1.791c2.063-.388 4.181-.613 6.354-.613s4.292.225 6.354.613V6.666c-2.066-.369-4.181-.594-6.354-.594-2.169 0-4.287.225-6.354.594zm34.675 16.142l1.265-1.264a36.23 36.23 0 0 0-8.982-8.987l-1.271 1.267a34.344 34.344 0 0 1 8.988 8.984zm-63.8 12.981c-.369 2.066-.591 4.184-.591 6.354s.222 4.288.591 6.354h1.791a34.478 34.478 0 0 1-.611-6.354c0-2.172.225-4.292.611-6.354h-1.791zm54.812 34.676l1.271 1.264a36.226 36.226 0 0 0 8.982-8.986l-1.265-1.265a34.416 34.416 0 0 1-8.988 8.987zm16.143-34.676h-1.789c.385 2.062.61 4.182.61 6.354 0 2.173-.226 4.293-.61 6.354h1.789c.368-2.066.593-4.185.593-6.354s-.224-4.288-.593-6.354zm-41.83 40.043v1.79c2.066.368 4.185.593 6.354.593 2.174 0 4.288-.225 6.354-.593v-1.79c-2.063.386-4.181.611-6.354.611s-4.291-.226-6.354-.611zM29.537 61.478l-1.265 1.265a36.22 36.22 0 0 0 8.987 8.988l1.264-1.266a34.5 34.5 0 0 1-8.986-8.987zm-1.265-39.936l1.269 1.265a34.45 34.45 0 0 1 8.983-8.985l-1.264-1.267a36.322 36.322 0 0 0-8.988 8.987z"/><path opacity=".15" fill="#FFF" d="M80.228 10.785l-3.037 3.038a34.014 34.014 0 0 0-12.978-5.366V4.149A4.161 4.161 0 0 0 60.064 0h-4.405a4.162 4.162 0 0 0-4.154 4.149v4.308a34.076 34.076 0 0 0-12.981 5.364l-3.036-3.036a4.159 4.159 0 0 0-5.869 0L26.5 13.903a4.162 4.162 0 0 0 0 5.867l3.04 3.036a34.07 34.07 0 0 0-5.37 12.983h-4.304a4.165 4.165 0 0 0-4.153 4.152v4.407c0 2.282 1.871 4.149 4.153 4.149h4.304a34.093 34.093 0 0 0 5.366 12.98L26.5 64.515a4.163 4.163 0 0 0 0 5.868l1.802 1.804 59.6-59.6-1.802-1.802a4.171 4.171 0 0 0-5.872 0z"/><g><path fill="#FFF" d="M53.688 23.221c-11.322 0-20.911 7.389-24.242 17.601a19.637 19.637 0 0 0-13.94 11.855C6.896 52.969 0 60.022 0 68.7c0 8.67 6.874 15.708 15.46 16.027v.028h38.527v-61.52c-.1-.002-.199-.014-.299-.014z"/><path fill="#F2F4F9" d="M78.981 45.593c-1.533-12.504-12.104-22.21-24.994-22.358v61.52H78.27v-.047c10.434-.452 18.759-9.029 18.759-19.573 0-10.305-7.952-18.739-18.048-19.542z"/></g></svg>