<svg xmlns="http://www.w3.org/2000/svg" width="100" height="84.492" viewBox="0 0 100 84.492"><path fill="#FFF" d="M55.33 0C43.657 0 33.777 7.614 30.348 18.14c-6.563 1.459-11.914 6.093-14.368 12.218C7.105 30.66 0 37.927 0 46.873c0 8.935 7.082 16.189 15.932 16.517v.03h39.707V.015C55.535.01 55.435 0 55.33 0z"/><path fill="#F2F4F9" d="M81.399 23.059C79.817 10.168 68.92.167 55.639.015V63.42h25.026v-.047C91.421 62.906 100 54.066 100 43.198c0-10.621-8.194-19.311-18.601-20.139z"/><path fill="#00E1FF" d="M33.994 50.737l-15.979 4.292-1.354.363a10.933 10.933 0 0 0-4.339 2.661c-4.305 4.305-4.307 11.283 0 15.588L35.05 50.912c-.224-.223-.592-.299-1.056-.175z"/><path fill="#00C6F4" d="M30.568 69.309l.366-1.367 4.292-15.978c.125-.458.047-.829-.175-1.053l-22.73 22.73c4.302 4.301 11.281 4.301 15.585 0a10.947 10.947 0 0 0 2.662-4.332z"/><path fill="#00E1FF" d="M84.854 54.044l-15.98 4.291-1.358.365a10.957 10.957 0 0 0-4.337 2.661c-4.306 4.305-4.306 11.284 0 15.588L85.908 54.22c-.223-.222-.592-.301-1.054-.176z"/><path fill="#00C6F4" d="M81.427 72.619l.364-1.369 4.292-15.973c.124-.465.047-.835-.176-1.058l-22.728 22.73c4.304 4.306 11.283 4.306 15.587 0a10.981 10.981 0 0 0 2.661-4.33z"/><g><path fill="#00E1FF" d="M50.531 68.631l-9.698 2.604-.826.22a6.67 6.67 0 0 0-2.633 1.618 6.695 6.695 0 0 0 0 9.461l13.798-13.796c-.136-.137-.36-.18-.641-.107z"/><path fill="#00C6F4" d="M48.452 79.902l.22-.828 2.604-9.698c.074-.277.03-.505-.104-.638L37.374 82.534a6.693 6.693 0 0 0 9.46 0 6.67 6.67 0 0 0 1.618-2.632z"/></g><path opacity=".2" fill="#122C3D" d="M35.226 51.964l-3.077 11.455h15.407L35.05 50.912c.223.223.3.594.176 1.052zM86.083 55.277l-2.059 7.655a20.192 20.192 0 0 0 7.379-3.214l-5.496-5.499c.223.223.3.593.176 1.058z"/></svg>