<?xml version="1.0" encoding="utf-8"?>
<!-- Generator: Adobe Illustrator 15.0.0, SVG Export Plug-In . SVG Version: 6.00 Build 0)  -->
<!DOCTYPE svg PUBLIC "-//W3C//DTD SVG 1.1//EN" "http://www.w3.org/Graphics/SVG/1.1/DTD/svg11.dtd">
<svg version="1.1" id="Layer_1" xmlns="http://www.w3.org/2000/svg" xmlns:xlink="http://www.w3.org/1999/xlink" x="0px" y="0px"
	 width="100px" height="84.492px" viewBox="0 0 100 84.492" enable-background="new 0 0 100 84.492" xml:space="preserve">
<g>
	<g>
		<path fill="#FFFFFF" d="M55.33,0C43.657,0,33.777,7.614,30.348,18.14c-6.563,1.459-11.914,6.093-14.368,12.218
			C7.105,30.66,0,37.927,0,46.873c0,8.935,7.082,16.189,15.932,16.517v0.03h39.707V0.015C55.535,0.01,55.435,0,55.33,0z"/>
		<path fill="#F2F4F9" d="M81.399,23.059C79.817,10.168,68.92,0.167,55.639,0.015v63.405h25.026v-0.047
			C91.421,62.906,100,54.066,100,43.198C100,32.577,91.806,23.887,81.399,23.059z"/>
	</g>
	<g>
		<path fill="#00E1FF" d="M33.994,50.737l-15.979,4.292l-1.354,0.363c-1.585,0.52-3.079,1.401-4.339,2.661
			c-4.305,4.305-4.307,11.283,0,15.588L35.05,50.912C34.826,50.689,34.458,50.613,33.994,50.737z"/>
		<path fill="#00C6F4" d="M30.568,69.309l0.366-1.367l4.292-15.978c0.125-0.458,0.047-0.829-0.175-1.053L12.321,73.641
			c4.302,4.301,11.281,4.301,15.585,0C29.165,72.383,30.044,70.895,30.568,69.309z"/>
	</g>
	<g>
		<path fill="#00E1FF" d="M84.854,54.044l-15.98,4.291L67.516,58.7c-1.587,0.522-3.077,1.403-4.337,2.661
			c-4.306,4.305-4.306,11.284,0,15.588l22.729-22.729C85.685,53.998,85.316,53.919,84.854,54.044z"/>
		<path fill="#00C6F4" d="M81.427,72.619l0.364-1.369l4.292-15.973c0.124-0.465,0.047-0.835-0.176-1.058L63.179,76.949
			c4.304,4.306,11.283,4.306,15.587,0C80.023,75.691,80.903,74.202,81.427,72.619z"/>
	</g>
	<g>
		<path fill="#00E1FF" d="M50.531,68.631l-9.698,2.604l-0.826,0.22c-0.96,0.317-1.868,0.853-2.633,1.618
			c-2.61,2.612-2.61,6.847,0,9.461l13.798-13.796C51.036,68.601,50.812,68.558,50.531,68.631z"/>
		<path fill="#00C6F4" d="M48.452,79.902l0.22-0.828l2.604-9.698c0.074-0.277,0.03-0.505-0.104-0.638L37.374,82.534
			c2.612,2.61,6.848,2.61,9.46,0C47.6,81.767,48.133,80.865,48.452,79.902z"/>
	</g>
	<path opacity="0.2" fill="#122C3D" d="M35.226,51.964l-3.077,11.455h15.407L35.05,50.912C35.273,51.135,35.35,51.506,35.226,51.964
		z"/>
	<path opacity="0.2" fill="#122C3D" d="M86.083,55.277l-2.059,7.655c2.698-0.578,5.198-1.683,7.379-3.214l-5.496-5.499
		C86.13,54.442,86.207,54.812,86.083,55.277z"/>
</g>
</svg>
