<?xml version="1.0" encoding="utf-8"?>
<!-- Generator: Adobe Illustrator 15.0.0, SVG Export Plug-In . SVG Version: 6.00 Build 0)  -->
<!DOCTYPE svg PUBLIC "-//W3C//DTD SVG 1.1//EN" "http://www.w3.org/Graphics/SVG/1.1/DTD/svg11.dtd">
<svg version="1.1" id="Layer_1" xmlns="http://www.w3.org/2000/svg" xmlns:xlink="http://www.w3.org/1999/xlink" x="0px" y="0px"
	 width="100px" height="81.661px" viewBox="0 0 100 81.661" enable-background="new 0 0 100 81.661" xml:space="preserve">
<g>
	<g>
		<path fill="#FFFFFF" d="M55.332,0C43.658,0,33.778,7.615,30.347,18.141c-6.564,1.459-11.916,6.093-14.37,12.219
			C7.103,30.662,0,37.93,0,46.874c0,8.937,7.079,16.19,15.931,16.518v0.03h39.707V0.015C55.535,0.011,55.434,0,55.332,0z"/>
		<path fill="#F2F4F9" d="M81.399,23.06C79.82,10.169,68.922,0.167,55.638,0.015v63.406h25.029v-0.048
			C91.421,62.909,100,54.068,100,43.199C100,32.579,91.806,23.888,81.399,23.06z"/>
	</g>
	<g>
		<path fill="#00E1FF" d="M84.853,54.045l-15.979,4.293l-1.355,0.364c-1.587,0.521-3.081,1.402-4.339,2.66
			c-4.306,4.305-4.306,11.284,0,15.589l22.729-22.73C85.688,53.999,85.319,53.922,84.853,54.045z"/>
		<path fill="#00C6F4" d="M81.43,72.622l0.363-1.369l4.292-15.975c0.124-0.463,0.047-0.833-0.176-1.057L63.18,76.952
			c4.305,4.305,11.283,4.305,15.588,0C80.025,75.693,80.903,74.205,81.43,72.622z"/>
	</g>
	<path opacity="0.2" fill="#122C3D" d="M86.085,55.278l-2.059,7.656c2.696-0.578,5.199-1.682,7.377-3.214l-5.494-5.499
		C86.132,54.445,86.209,54.815,86.085,55.278z"/>
	<g>
		<path fill="#00E1FF" d="M37.006,71.924l-3.844-2.221l3.346-0.897c0.18-0.046,0.288-0.233,0.24-0.414l-0.542-2.014
			c-0.046-0.18-0.233-0.288-0.413-0.239l-6.017,1.611l-4.908-2.834l4.908-2.835l6.017,1.613c0.18,0.05,0.366-0.06,0.413-0.239
			l0.542-2.016c0.047-0.179-0.06-0.364-0.24-0.415l-3.346-0.895l3.844-2.221c0.161-0.093,0.217-0.301,0.123-0.462l-1.042-1.806
			c-0.092-0.162-0.302-0.217-0.46-0.124l-3.847,2.22l0.898-3.347c0.047-0.181-0.06-0.367-0.239-0.414l-2.016-0.538
			c-0.18-0.05-0.369,0.058-0.415,0.236l-1.613,6.018l-4.906,2.832v-5.409l4.401-4.403c0.133-0.13,0.133-0.347,0-0.476l-1.472-1.476
			c-0.133-0.131-0.349-0.131-0.479,0l-2.45,2.449v-4.699c0-0.186-0.152-0.339-0.34-0.339h-2.084c-0.186,0-0.338,0.153-0.338,0.339
			v4.699l-2.452-2.449c-0.128-0.131-0.347-0.131-0.475,0l-1.477,1.476c-0.132,0.129-0.132,0.346,0,0.476l4.403,4.403v5.409
			l-4.683-2.705l-1.611-6.013c-0.047-0.18-0.236-0.289-0.416-0.239l-2.015,0.54c-0.18,0.048-0.287,0.233-0.24,0.414l0.899,3.345
			l-4.069-2.349C8.43,55.425,8.222,55.48,8.13,55.642l-1.044,1.806c-0.092,0.161-0.038,0.369,0.124,0.462l4.07,2.35l-3.346,0.896
			c-0.18,0.049-0.286,0.235-0.239,0.415l0.538,2.014c0.052,0.179,0.236,0.289,0.416,0.24l6.015-1.612l4.682,2.704l-4.682,2.704
			l-6.015-1.613c-0.18-0.047-0.364,0.061-0.414,0.24l-0.541,2.015c-0.047,0.181,0.059,0.366,0.239,0.414l3.346,0.896l-4.07,2.352
			c-0.162,0.091-0.215,0.299-0.124,0.461l1.044,1.807c0.091,0.161,0.299,0.218,0.462,0.124l4.069-2.349l-0.899,3.345
			c-0.046,0.181,0.06,0.366,0.24,0.413l2.015,0.542c0.18,0.046,0.368-0.061,0.416-0.24l1.611-6.013l4.683-2.705v5.667l-4.403,4.403
			c-0.132,0.13-0.132,0.346,0,0.478l1.477,1.475c0.128,0.133,0.347,0.133,0.475,0l2.452-2.449v4.44c0,0.186,0.152,0.338,0.338,0.338
			h2.084c0.188,0,0.34-0.152,0.34-0.338v-4.44l2.45,2.449c0.13,0.133,0.347,0.133,0.479,0l1.472-1.475
			c0.133-0.132,0.133-0.348,0-0.478l-4.401-4.403v-5.667l4.906,2.835l1.613,6.012c0.046,0.182,0.234,0.289,0.415,0.24l2.016-0.539
			c0.18-0.048,0.287-0.235,0.239-0.415l-0.898-3.346l3.847,2.22c0.158,0.094,0.368,0.037,0.46-0.124l1.042-1.807
			C37.223,72.223,37.167,72.015,37.006,71.924z"/>
		<path opacity="0.2" fill="#122C3D" d="M29.854,54.248l-1.891-1.894l-0.03-0.02c0.061,0.126,0.065,0.274-0.042,0.378l-4.401,4.403
			v5.409l4.906-2.832L29.854,54.248z M12.152,62.885c1.112,0.284,2.268,0.463,3.461,0.506v0.03h1.144l-2.094-1.209L12.152,62.885z
			 M16.044,59.82l4.683,2.705v-2.38l-6.277-6.275L16.044,59.82z M23.49,53.21l2.372-2.374l-2.407-2.407
			c0.009,0.029,0.035,0.049,0.035,0.082V53.21z M43.868,63.421l-7.781-7.779l1.042,1.806c0.094,0.161,0.038,0.369-0.123,0.462
			l-3.844,2.221l3.346,0.895c0.18,0.051,0.288,0.236,0.24,0.415l-0.531,1.981H43.868z M34.617,56.1l-1.998-2l-0.017,0.004
			c0.063,0.08,0.104,0.18,0.077,0.287l-0.898,3.347L34.617,56.1z M27.458,63.421h7.317l-4.998-1.34L27.458,63.421z"/>
	</g>
</g>
</svg>
