<svg xmlns="http://www.w3.org/2000/svg" width="100" height="81.661" viewBox="0 0 100 81.661"><path fill="#FFF" d="M55.332 0C43.658 0 33.778 7.615 30.347 18.141a20.24 20.24 0 0 0-14.37 12.219C7.103 30.662 0 37.93 0 46.874c0 8.937 7.079 16.19 15.931 16.518v.03h39.707V.015C55.535.011 55.434 0 55.332 0z"/><path fill="#F2F4F9" d="M81.399 23.06C79.82 10.169 68.922.167 55.638.015v63.406h25.029v-.048C91.421 62.909 100 54.068 100 43.199c0-10.62-8.194-19.311-18.601-20.139z"/><path fill="#00E1FF" d="M84.853 54.045l-15.979 4.293-1.355.364a10.937 10.937 0 0 0-4.339 2.66c-4.306 4.305-4.306 11.284 0 15.589l22.729-22.73c-.221-.222-.59-.299-1.056-.176z"/><path fill="#00C6F4" d="M81.43 72.622l.363-1.369 4.292-15.975c.124-.463.047-.833-.176-1.057L63.18 76.952c4.305 4.305 11.283 4.305 15.588 0a11.025 11.025 0 0 0 2.662-4.33z"/><path opacity=".2" fill="#122C3D" d="M86.085 55.278l-2.059 7.656a20.158 20.158 0 0 0 7.377-3.214l-5.494-5.499c.223.224.3.594.176 1.057z"/><g><path fill="#00E1FF" d="M37.006 71.924l-3.844-2.221 3.346-.897a.338.338 0 0 0 .24-.414l-.542-2.014a.336.336 0 0 0-.413-.239l-6.017 1.611-4.908-2.834 4.908-2.835 6.017 1.613c.18.05.366-.06.413-.239l.542-2.016a.343.343 0 0 0-.24-.415l-3.346-.895 3.844-2.221a.338.338 0 0 0 .123-.462l-1.042-1.806a.337.337 0 0 0-.46-.124l-3.847 2.22.898-3.347a.34.34 0 0 0-.239-.414l-2.016-.538a.337.337 0 0 0-.415.236l-1.613 6.018-4.906 2.832v-5.409l4.401-4.403a.334.334 0 0 0 0-.476l-1.472-1.476a.341.341 0 0 0-.479 0l-2.45 2.449v-4.699a.34.34 0 0 0-.34-.339h-2.084a.34.34 0 0 0-.338.339v4.699l-2.452-2.449a.336.336 0 0 0-.475 0l-1.477 1.476a.336.336 0 0 0 0 .476l4.403 4.403v5.409l-4.683-2.705-1.611-6.013a.339.339 0 0 0-.416-.239l-2.015.54a.34.34 0 0 0-.24.414l.899 3.345-4.069-2.349a.34.34 0 0 0-.461.126l-1.044 1.806a.34.34 0 0 0 .124.462l4.07 2.35-3.346.896a.34.34 0 0 0-.239.415l.538 2.014a.343.343 0 0 0 .416.24l6.015-1.612 4.682 2.704-4.682 2.704-6.015-1.613a.342.342 0 0 0-.414.24l-.541 2.015a.339.339 0 0 0 .239.414l3.346.896-4.07 2.352a.338.338 0 0 0-.124.461l1.044 1.807a.338.338 0 0 0 .462.124l4.069-2.349-.899 3.345a.339.339 0 0 0 .24.413l2.015.542a.344.344 0 0 0 .416-.24l1.611-6.013 4.683-2.705v5.667l-4.403 4.403a.338.338 0 0 0 0 .478l1.477 1.475a.333.333 0 0 0 .475 0l2.452-2.449v4.44c0 .186.152.338.338.338h2.084a.34.34 0 0 0 .34-.338v-4.44l2.45 2.449c.13.133.347.133.479 0l1.472-1.475a.336.336 0 0 0 0-.478l-4.401-4.403V67.31l4.906 2.835 1.613 6.012a.336.336 0 0 0 .415.24l2.016-.539a.34.34 0 0 0 .239-.415l-.898-3.346 3.847 2.22a.337.337 0 0 0 .46-.124l1.042-1.807a.337.337 0 0 0-.123-.462z"/><path opacity=".2" fill="#122C3D" d="M29.854 54.248l-1.891-1.894-.03-.02c.061.126.065.274-.042.378l-4.401 4.403v5.409l4.906-2.832 1.458-5.444zm-17.702 8.637c1.112.284 2.268.463 3.461.506v.03h1.144l-2.094-1.209-2.511.673zm3.892-3.065l4.683 2.705v-2.38L14.45 53.87l1.594 5.95zm7.446-6.61l2.372-2.374-2.407-2.407c.009.029.035.049.035.082v4.699zm20.378 10.211l-7.781-7.779 1.042 1.806a.338.338 0 0 1-.123.462l-3.844 2.221 3.346.895c.18.051.288.236.24.415l-.531 1.981h7.651zM34.617 56.1l-1.998-2-.017.004c.063.08.104.18.077.287l-.898 3.347 2.836-1.638zm-7.159 7.321h7.317l-4.998-1.34-2.319 1.34z"/></g></svg>