<svg xmlns="http://www.w3.org/2000/svg" width="100" height="90.421" viewBox="0 0 100 90.421"><path fill="#FFF" d="M55.33 0C43.657 0 33.777 7.615 30.348 18.141 23.785 19.6 18.434 24.234 15.98 30.36 7.105 30.661 0 37.928 0 46.874c0 8.935 7.082 16.189 15.932 16.517v.028h39.707V.015C55.535.011 55.435 0 55.33 0z"/><path fill="#F2F4F9" d="M81.399 23.059C79.817 10.169 68.92.167 55.639.015v63.404h25.026v-.046C91.421 62.906 100 54.065 100 43.198c0-10.62-8.194-19.311-18.601-20.139z"/><path fill="#00E1FF" d="M54.793 85.462l-1.958-1.13 1.704-.457a.174.174 0 0 0 .124-.211l-.276-1.025a.174.174 0 0 0-.212-.123l-3.062.821-2.499-1.443 2.499-1.443 3.062.821a.174.174 0 0 0 .212-.122l.276-1.026a.176.176 0 0 0-.124-.211l-1.704-.456 1.958-1.131a.172.172 0 0 0 .064-.235l-.533-.919a.17.17 0 0 0-.232-.063l-1.96 1.129.458-1.702a.175.175 0 0 0-.122-.212l-1.027-.274a.172.172 0 0 0-.21.121l-.821 3.063-2.498 1.442v-2.755l2.242-2.242a.173.173 0 0 0 0-.242l-.751-.751a.173.173 0 0 0-.244 0l-1.247 1.247v-2.394a.173.173 0 0 0-.173-.172h-1.062a.173.173 0 0 0-.173.172v2.394l-1.248-1.247a.17.17 0 0 0-.242 0l-.753.751a.173.173 0 0 0 0 .242l2.243 2.242v2.755l-2.384-1.377-.821-3.063a.172.172 0 0 0-.212-.122l-1.024.274a.174.174 0 0 0-.122.211l.458 1.704-2.073-1.195a.17.17 0 0 0-.235.063l-.533.919a.176.176 0 0 0 .064.235l2.073 1.197-1.705.457a.173.173 0 0 0-.122.211l.276 1.024c.023.092.12.147.209.123l3.063-.821 2.386 1.377-2.386 1.379-3.063-.822a.17.17 0 0 0-.209.122l-.276 1.026a.173.173 0 0 0 .122.21l1.705.457-2.073 1.196a.176.176 0 0 0-.064.235l.533.919c.047.083.154.11.235.064l2.073-1.197-.458 1.704a.173.173 0 0 0 .122.211l1.024.275a.173.173 0 0 0 .212-.122l.821-3.063 2.384-1.377v2.887L44.26 88.24a.175.175 0 0 0 0 .244l.753.75a.169.169 0 0 0 .242 0l1.248-1.247v2.262c0 .094.079.172.173.172h1.062a.173.173 0 0 0 .173-.172v-2.262l1.247 1.247a.171.171 0 0 0 .244 0l.751-.75a.175.175 0 0 0 0-.244l-2.242-2.241v-2.887l2.498 1.443.821 3.062c.024.092.12.147.21.124l1.027-.276a.173.173 0 0 0 .122-.211l-.458-1.703 1.96 1.13a.17.17 0 0 0 .232-.064l.533-.919a.172.172 0 0 0-.063-.236zM37.325 71.922l-3.845-2.219 3.346-.897a.34.34 0 0 0 .24-.415l-.542-2.015a.336.336 0 0 0-.413-.238l-6.014 1.611-4.908-2.833 4.908-2.835 6.014 1.611c.18.05.366-.059.413-.238l.542-2.015a.341.341 0 0 0-.24-.415l-3.346-.896 3.845-2.221a.337.337 0 0 0 .124-.461l-1.044-1.807a.335.335 0 0 0-.46-.123l-3.846 2.218.898-3.345a.339.339 0 0 0-.24-.414l-2.015-.54a.34.34 0 0 0-.415.238l-1.611 6.017-4.908 2.832v-5.408l4.403-4.403a.335.335 0 0 0 0-.477l-1.474-1.476a.341.341 0 0 0-.479 0l-2.45 2.45v-4.699a.34.34 0 0 0-.338-.339h-2.086a.338.338 0 0 0-.337.339v4.699l-2.45-2.45a.339.339 0 0 0-.477 0l-1.477 1.476a.34.34 0 0 0 0 .477l4.403 4.403v5.408l-4.684-2.704-1.611-6.014a.336.336 0 0 0-.415-.239l-2.013.54a.338.338 0 0 0-.239.414l.896 3.346-4.069-2.349a.337.337 0 0 0-.462.123l-1.044 1.807a.34.34 0 0 0 .124.461l4.069 2.35-3.346.896a.34.34 0 0 0-.238.416l.54 2.014a.34.34 0 0 0 .413.24l6.016-1.612 4.681 2.705-4.681 2.703-6.016-1.613a.341.341 0 0 0-.413.24l-.54 2.015a.335.335 0 0 0 .238.413l3.348.898-4.071 2.35a.34.34 0 0 0-.124.461l1.044 1.807a.338.338 0 0 0 .462.124l4.069-2.349-.896 3.345a.337.337 0 0 0 .239.414l2.013.541a.338.338 0 0 0 .415-.238l1.611-6.015 4.684-2.705v5.669l-4.403 4.401a.343.343 0 0 0 0 .479l1.477 1.475c.13.132.346.132.477 0l2.45-2.45v4.44a.34.34 0 0 0 .337.339h2.086a.34.34 0 0 0 .338-.339v-4.44l2.45 2.45a.34.34 0 0 0 .479 0l1.474-1.475a.337.337 0 0 0 0-.479l-4.403-4.401v-5.669l4.908 2.835 1.611 6.013a.341.341 0 0 0 .415.241l2.015-.541a.339.339 0 0 0 .24-.413l-.898-3.347 3.846 2.219a.335.335 0 0 0 .46-.124l1.044-1.807a.338.338 0 0 0-.124-.461z"/><path opacity=".2" fill="#122C3D" d="M30.174 54.246l-1.893-1.894-.03-.02c.063.126.064.274-.041.379l-4.403 4.403v5.408l4.908-2.832 1.459-5.444zm-17.703 8.638a16.59 16.59 0 0 0 3.461.507v.028h1.142l-2.092-1.208-2.511.673zm3.891-3.065l4.684 2.704v-2.379l-6.277-6.276 1.593 5.951zm7.446-6.609l2.375-2.375-2.409-2.407c.009.029.034.051.034.083v4.699zm20.378 10.209l-7.781-7.778 1.044 1.807a.337.337 0 0 1-.124.461L33.48 60.13l3.346.896c.18.05.287.234.24.415l-.531 1.979h7.651zm-9.249-7.32l-2-2-.015.004c.064.08.102.18.075.288l-.898 3.345 2.838-1.637zm-7.159 7.32h7.315l-4.996-1.338-2.319 1.338z"/><path fill="#00E1FF" d="M88.626 71.922l-3.844-2.219 3.346-.897a.34.34 0 0 0 .24-.415l-.542-2.015a.335.335 0 0 0-.412-.238l-6.015 1.611-4.908-2.833 4.908-2.835 6.015 1.611a.335.335 0 0 0 .412-.238l.542-2.015a.342.342 0 0 0-.24-.415l-3.346-.896 3.844-2.221a.338.338 0 0 0 .125-.461l-1.044-1.807a.336.336 0 0 0-.461-.123l-3.847 2.218.899-3.345a.34.34 0 0 0-.24-.414l-2.015-.54a.34.34 0 0 0-.415.238l-1.612 6.017-4.907 2.832v-5.408l4.402-4.403a.333.333 0 0 0 0-.477l-1.473-1.476a.342.342 0 0 0-.48 0l-2.449 2.45v-4.699a.34.34 0 0 0-.338-.339h-2.087a.339.339 0 0 0-.337.339v4.699l-2.45-2.45a.339.339 0 0 0-.477 0l-1.477 1.476a.34.34 0 0 0 0 .477l4.403 4.403v5.408l-4.684-2.704-1.61-6.014a.337.337 0 0 0-.416-.239l-2.014.54a.339.339 0 0 0-.239.414l.896 3.346-4.068-2.349a.338.338 0 0 0-.463.123l-1.044 1.807a.34.34 0 0 0 .124.461l4.069 2.35-3.346.896a.34.34 0 0 0-.238.416l.54 2.014a.34.34 0 0 0 .413.24l6.016-1.612 4.681 2.705-4.681 2.703-6.016-1.613a.341.341 0 0 0-.413.24l-.54 2.015a.337.337 0 0 0 .238.413l3.348.898-4.071 2.35a.34.34 0 0 0-.124.461l1.044 1.807a.339.339 0 0 0 .463.124l4.068-2.349-.896 3.345a.338.338 0 0 0 .239.414l2.014.541a.34.34 0 0 0 .416-.238l1.61-6.015 4.684-2.705v5.669l-4.403 4.401a.343.343 0 0 0 0 .479l1.477 1.475c.13.132.346.132.477 0l2.45-2.45v4.44a.34.34 0 0 0 .337.339h2.087a.34.34 0 0 0 .338-.339v-4.44l2.449 2.45a.34.34 0 0 0 .48 0l1.473-1.475a.336.336 0 0 0 0-.479l-4.402-4.401v-5.669l4.907 2.835 1.612 6.013a.341.341 0 0 0 .415.241l2.015-.541a.34.34 0 0 0 .24-.413l-.899-3.347 3.847 2.219a.336.336 0 0 0 .461-.124l1.044-1.807a.338.338 0 0 0-.125-.461z"/><path opacity=".2" fill="#122C3D" d="M79.08 63.419h1.585v-.046a20.374 20.374 0 0 0 3.629-.499c.014-.003.026-.004.036-.007l-2.931-.786-2.319 1.338zm7.159-7.32l-2.001-2-.015.004c.064.082.102.18.075.288l-.899 3.345 2.84-1.637zm-4.762-1.853l-1.894-1.894-.03-.02c.03.063.05.12.039.187a.264.264 0 0 1-.08.192l-4.402 4.403v5.408l4.907-2.832 1.46-5.444zm-19.703 9.173h6.602l-2.092-1.208-4.51 1.208zm25.933-7.778l1.044 1.807a.338.338 0 0 1-.125.461l-3.844 2.221 3.346.896c.18.05.287.234.24.415l-.013.046a20.004 20.004 0 0 0 1.684-.889l.01-.005a20.88 20.88 0 0 0 1.578-1.034l-3.92-3.918zM75.109 53.21l2.375-2.375-2.409-2.407c.009.029.034.051.034.083v4.699zm-7.445 6.609l4.684 2.704v-2.379l-6.276-6.276 1.592 5.951z"/></svg>