<?xml version="1.0" encoding="utf-8"?>
<!-- Generator: Adobe Illustrator 15.0.0, SVG Export Plug-In . SVG Version: 6.00 Build 0)  -->
<!DOCTYPE svg PUBLIC "-//W3C//DTD SVG 1.1//EN" "http://www.w3.org/Graphics/SVG/1.1/DTD/svg11.dtd">
<svg version="1.1" id="Layer_1" xmlns="http://www.w3.org/2000/svg" xmlns:xlink="http://www.w3.org/1999/xlink" x="0px" y="0px"
	 width="100px" height="90.421px" viewBox="0 0 100 90.421" enable-background="new 0 0 100 90.421" xml:space="preserve">
<g>
	<path fill="#FFFFFF" d="M55.33,0C43.657,0,33.777,7.615,30.348,18.141c-6.563,1.459-11.914,6.093-14.368,12.219
		C7.105,30.661,0,37.928,0,46.874c0,8.935,7.082,16.189,15.932,16.517v0.028h39.707V0.015C55.535,0.011,55.435,0,55.33,0z"/>
	<path fill="#F2F4F9" d="M81.399,23.059C79.817,10.169,68.92,0.167,55.639,0.015v63.404h25.026v-0.046
		C91.421,62.906,100,54.065,100,43.198C100,32.578,91.806,23.887,81.399,23.059z"/>
	<path fill="#00E1FF" d="M54.793,85.462l-1.958-1.13l1.704-0.457c0.092-0.023,0.147-0.119,0.124-0.211l-0.276-1.025
		c-0.023-0.093-0.12-0.146-0.212-0.123l-3.062,0.821l-2.499-1.443l2.499-1.443l3.062,0.821c0.092,0.024,0.188-0.03,0.212-0.122
		l0.276-1.026c0.023-0.091-0.032-0.185-0.124-0.211l-1.704-0.456l1.958-1.131c0.083-0.047,0.111-0.153,0.064-0.235l-0.533-0.919
		c-0.047-0.082-0.151-0.11-0.232-0.063l-1.96,1.129l0.458-1.702c0.022-0.093-0.03-0.188-0.122-0.212l-1.027-0.274
		c-0.09-0.025-0.186,0.03-0.21,0.121l-0.821,3.063l-2.498,1.442v-2.755l2.242-2.242c0.066-0.066,0.066-0.175,0-0.242l-0.751-0.751
		c-0.066-0.067-0.178-0.067-0.244,0l-1.247,1.247v-2.394c0-0.095-0.078-0.172-0.173-0.172h-1.062c-0.094,0-0.173,0.077-0.173,0.172
		v2.394l-1.248-1.247c-0.066-0.067-0.175-0.067-0.242,0l-0.753,0.751c-0.066,0.067-0.066,0.176,0,0.242l2.243,2.242v2.755
		l-2.384-1.377l-0.821-3.063c-0.023-0.092-0.118-0.146-0.212-0.122l-1.024,0.274c-0.092,0.025-0.146,0.121-0.122,0.211l0.458,1.704
		l-2.073-1.195c-0.082-0.048-0.188-0.02-0.235,0.063l-0.533,0.919c-0.045,0.082-0.017,0.188,0.064,0.235l2.073,1.197l-1.705,0.457
		c-0.092,0.024-0.146,0.12-0.122,0.211l0.276,1.024c0.023,0.092,0.12,0.147,0.209,0.123l3.063-0.821l2.386,1.377l-2.386,1.379
		l-3.063-0.822c-0.09-0.025-0.187,0.03-0.209,0.122l-0.276,1.026c-0.023,0.091,0.03,0.186,0.122,0.21l1.705,0.457l-2.073,1.196
		c-0.081,0.048-0.109,0.153-0.064,0.235l0.533,0.919c0.047,0.083,0.154,0.11,0.235,0.064l2.073-1.197l-0.458,1.704
		c-0.023,0.092,0.03,0.188,0.122,0.211l1.024,0.275c0.094,0.024,0.188-0.03,0.212-0.122l0.821-3.063l2.384-1.377v2.887L44.26,88.24
		c-0.066,0.067-0.066,0.176,0,0.244l0.753,0.75c0.066,0.068,0.175,0.068,0.242,0l1.248-1.247v2.262c0,0.094,0.079,0.172,0.173,0.172
		h1.062c0.096,0,0.173-0.078,0.173-0.172v-2.262l1.247,1.247c0.066,0.068,0.178,0.068,0.244,0l0.751-0.75
		c0.066-0.068,0.066-0.177,0-0.244l-2.242-2.241v-2.887l2.498,1.443l0.821,3.062c0.024,0.092,0.12,0.147,0.21,0.124l1.027-0.276
		c0.092-0.024,0.145-0.119,0.122-0.211l-0.458-1.703l1.96,1.13c0.081,0.046,0.186,0.019,0.232-0.064l0.533-0.919
		C54.904,85.615,54.876,85.51,54.793,85.462z"/>
	<g>
		<path fill="#00E1FF" d="M37.325,71.922l-3.845-2.219l3.346-0.897c0.18-0.047,0.287-0.233,0.24-0.415l-0.542-2.015
			c-0.047-0.179-0.233-0.287-0.413-0.238l-6.014,1.611l-4.908-2.833l4.908-2.835l6.014,1.611c0.18,0.05,0.366-0.059,0.413-0.238
			l0.542-2.015c0.047-0.181-0.06-0.365-0.24-0.415l-3.346-0.896l3.845-2.221c0.163-0.093,0.216-0.3,0.124-0.461l-1.044-1.807
			c-0.092-0.162-0.3-0.217-0.46-0.123l-3.846,2.218l0.898-3.345c0.047-0.181-0.06-0.368-0.24-0.414l-2.015-0.54
			c-0.18-0.049-0.366,0.059-0.415,0.238l-1.611,6.017l-4.908,2.832v-5.408l4.403-4.403c0.133-0.13,0.133-0.347,0-0.477l-1.474-1.476
			c-0.132-0.131-0.348-0.131-0.479,0l-2.45,2.45v-4.699c0-0.187-0.152-0.339-0.338-0.339h-2.086c-0.186,0-0.337,0.152-0.337,0.339
			v4.699l-2.45-2.45c-0.131-0.131-0.347-0.131-0.477,0l-1.477,1.476c-0.13,0.13-0.13,0.347,0,0.477l4.403,4.403v5.408l-4.684-2.704
			l-1.611-6.014c-0.047-0.181-0.233-0.289-0.415-0.239l-2.013,0.54c-0.179,0.048-0.289,0.234-0.239,0.414l0.896,3.346l-4.069-2.349
			c-0.16-0.094-0.37-0.039-0.462,0.123l-1.044,1.807c-0.092,0.161-0.037,0.368,0.124,0.461l4.069,2.35l-3.346,0.896
			c-0.18,0.05-0.287,0.236-0.238,0.416l0.54,2.014c0.049,0.179,0.235,0.289,0.413,0.24l6.016-1.612l4.681,2.705l-4.681,2.703
			l-6.016-1.613c-0.178-0.047-0.364,0.061-0.413,0.24l-0.54,2.015c-0.049,0.181,0.058,0.366,0.238,0.413l3.348,0.898l-4.071,2.35
			c-0.161,0.093-0.216,0.3-0.124,0.461l1.044,1.807c0.092,0.162,0.302,0.218,0.462,0.124l4.069-2.349l-0.896,3.345
			c-0.049,0.182,0.06,0.367,0.239,0.414l2.013,0.541c0.182,0.048,0.368-0.059,0.415-0.238l1.611-6.015l4.684-2.705v5.669
			l-4.403,4.401c-0.13,0.132-0.13,0.346,0,0.479l1.477,1.475c0.13,0.132,0.346,0.132,0.477,0l2.45-2.45v4.44
			c0,0.186,0.152,0.339,0.337,0.339h2.086c0.186,0,0.338-0.153,0.338-0.339v-4.44l2.45,2.45c0.131,0.132,0.347,0.132,0.479,0
			l1.474-1.475c0.133-0.133,0.133-0.347,0-0.479l-4.403-4.401v-5.669l4.908,2.835l1.611,6.013c0.049,0.181,0.235,0.288,0.415,0.241
			l2.015-0.541c0.18-0.047,0.287-0.234,0.24-0.413l-0.898-3.347l3.846,2.219c0.161,0.094,0.369,0.038,0.46-0.124l1.044-1.807
			C37.541,72.222,37.487,72.015,37.325,71.922z"/>
		<path opacity="0.2" fill="#122C3D" d="M30.174,54.246l-1.893-1.894l-0.03-0.02c0.063,0.126,0.064,0.274-0.041,0.379l-4.403,4.403
			v5.408l4.908-2.832L30.174,54.246z M12.471,62.884c1.115,0.283,2.27,0.462,3.461,0.507v0.028h1.142l-2.092-1.208L12.471,62.884z
			 M16.362,59.819l4.684,2.704v-2.379l-6.277-6.276L16.362,59.819z M23.808,53.21l2.375-2.375l-2.409-2.407
			c0.009,0.029,0.034,0.051,0.034,0.083V53.21z M44.186,63.419l-7.781-7.778l1.044,1.807c0.092,0.161,0.039,0.368-0.124,0.461
			l-3.845,2.221l3.346,0.896c0.18,0.05,0.287,0.234,0.24,0.415l-0.531,1.979H44.186z M34.937,56.099l-2-2l-0.015,0.004
			c0.064,0.08,0.102,0.18,0.075,0.288l-0.898,3.345L34.937,56.099z M27.778,63.419h7.315l-4.996-1.338L27.778,63.419z"/>
	</g>
	<path fill="#00E1FF" d="M88.626,71.922l-3.844-2.219l3.346-0.897c0.18-0.047,0.287-0.233,0.24-0.415l-0.542-2.015
		c-0.046-0.179-0.233-0.287-0.412-0.238l-6.015,1.611l-4.908-2.833l4.908-2.835l6.015,1.611c0.179,0.05,0.366-0.059,0.412-0.238
		l0.542-2.015c0.047-0.181-0.061-0.365-0.24-0.415l-3.346-0.896l3.844-2.221c0.163-0.093,0.217-0.3,0.125-0.461l-1.044-1.807
		c-0.093-0.162-0.3-0.217-0.461-0.123l-3.847,2.218l0.899-3.345c0.046-0.181-0.061-0.368-0.24-0.414l-2.015-0.54
		c-0.18-0.049-0.366,0.059-0.415,0.238l-1.612,6.017l-4.907,2.832v-5.408l4.402-4.403c0.134-0.13,0.134-0.347,0-0.477l-1.473-1.476
		c-0.134-0.131-0.349-0.131-0.48,0l-2.449,2.45v-4.699c0-0.187-0.152-0.339-0.338-0.339h-2.087c-0.185,0-0.337,0.152-0.337,0.339
		v4.699l-2.45-2.45c-0.131-0.131-0.347-0.131-0.477,0l-1.477,1.476c-0.13,0.13-0.13,0.347,0,0.477l4.403,4.403v5.408l-4.684-2.704
		l-1.61-6.014c-0.048-0.181-0.233-0.289-0.416-0.239l-2.014,0.54c-0.179,0.048-0.288,0.234-0.239,0.414l0.896,3.346l-4.068-2.349
		c-0.162-0.094-0.37-0.039-0.463,0.123l-1.044,1.807c-0.091,0.161-0.036,0.368,0.124,0.461l4.069,2.35l-3.346,0.896
		c-0.18,0.05-0.286,0.236-0.238,0.416l0.54,2.014c0.05,0.179,0.234,0.289,0.413,0.24l6.016-1.612l4.681,2.705l-4.681,2.703
		l-6.016-1.613c-0.179-0.047-0.363,0.061-0.413,0.24l-0.54,2.015c-0.048,0.181,0.059,0.366,0.238,0.413l3.348,0.898l-4.071,2.35
		c-0.16,0.093-0.215,0.3-0.124,0.461l1.044,1.807c0.093,0.162,0.301,0.218,0.463,0.124l4.068-2.349l-0.896,3.345
		c-0.049,0.182,0.061,0.367,0.239,0.414l2.014,0.541c0.183,0.048,0.368-0.059,0.416-0.238l1.61-6.015l4.684-2.705v5.669
		l-4.403,4.401c-0.13,0.132-0.13,0.346,0,0.479l1.477,1.475c0.13,0.132,0.346,0.132,0.477,0l2.45-2.45v4.44
		c0,0.186,0.152,0.339,0.337,0.339h2.087c0.186,0,0.338-0.153,0.338-0.339v-4.44l2.449,2.45c0.132,0.132,0.347,0.132,0.48,0
		l1.473-1.475c0.134-0.133,0.134-0.347,0-0.479l-4.402-4.401v-5.669l4.907,2.835l1.612,6.013c0.049,0.181,0.235,0.288,0.415,0.241
		l2.015-0.541c0.18-0.047,0.286-0.234,0.24-0.413l-0.899-3.347l3.847,2.219c0.161,0.094,0.368,0.038,0.461-0.124l1.044-1.807
		C88.843,72.222,88.789,72.015,88.626,71.922z"/>
	<path opacity="0.2" fill="#122C3D" d="M79.08,63.419h1.585v-0.046c0.633-0.028,1.255-0.09,1.868-0.174
		c0.595-0.084,1.183-0.193,1.761-0.325c0.014-0.003,0.026-0.004,0.036-0.007l-2.931-0.786L79.08,63.419z M86.239,56.099l-2.001-2
		l-0.015,0.004c0.064,0.082,0.102,0.18,0.075,0.288l-0.899,3.345L86.239,56.099z M81.477,54.246l-1.894-1.894l-0.03-0.02
		c0.03,0.063,0.05,0.12,0.039,0.187c-0.002,0.071-0.023,0.137-0.08,0.192l-4.402,4.403v5.408l4.907-2.832L81.477,54.246z
		 M61.774,63.419h6.602l-2.092-1.208L61.774,63.419z M87.707,55.641l1.044,1.807c0.092,0.161,0.038,0.368-0.125,0.461l-3.844,2.221
		l3.346,0.896c0.18,0.05,0.287,0.234,0.24,0.415l-0.013,0.046c0.577-0.271,1.138-0.566,1.684-0.889
		c0.005-0.002,0.007-0.004,0.01-0.005c0.542-0.321,1.068-0.666,1.578-1.034L87.707,55.641z M75.109,53.21l2.375-2.375l-2.409-2.407
		c0.009,0.029,0.034,0.051,0.034,0.083V53.21z M67.664,59.819l4.684,2.704v-2.379l-6.276-6.276L67.664,59.819z"/>
</g>
</svg>
