<?xml version="1.0" encoding="utf-8"?>
<!-- Generator: Adobe Illustrator 15.0.0, SVG Export Plug-In . SVG Version: 6.00 Build 0)  -->
<!DOCTYPE svg PUBLIC "-//W3C//DTD SVG 1.1//EN" "http://www.w3.org/Graphics/SVG/1.1/DTD/svg11.dtd">
<svg version="1.1" id="Layer_1" xmlns="http://www.w3.org/2000/svg" xmlns:xlink="http://www.w3.org/1999/xlink" x="0px" y="0px"
	 width="94.193px" height="100px" viewBox="0 0 94.193 100" enable-background="new 0 0 94.193 100" xml:space="preserve">
<g>
	<path fill="#FFFFFF" d="M49.22,1.833V1.647h-0.036C49.083,0.729,48.332,0,47.383,0c-0.948,0-1.701,0.729-1.805,1.647h-0.037v0.185
		c0,0.004,0,0.007,0,0.007s0,0.004,0,0.007v82.74h3.679V1.846c0-0.002,0-0.004,0-0.004C49.22,1.839,49.22,1.837,49.22,1.833z"/>
	<path fill="#98D24D" d="M45.541,84.586v6.329c-0.009,3.045-2.345,5.398-5.092,5.408c-2.745-0.01-5.08-2.363-5.089-5.408
		c-0.004-1.019-0.825-1.842-1.841-1.842c-1.014,0-1.839,0.823-1.839,1.842h-0.005c0.009,4.954,3.863,9.073,8.774,9.085
		c4.911-0.012,8.762-4.131,8.771-9.085v-6.329H45.541z"/>
	<path fill="#00C6F4" d="M94.193,44.436C91.508,22.036,71.5,4.625,47.188,4.6c21.047,6.579,23.624,40.603,23.636,40.838h0.123
		c1.098-5.501,5.906-9.663,11.728-9.663C88.142,35.775,92.747,39.434,94.193,44.436z"/>
	<path fill="#00E1FF" d="M23.485,45.438c0.014-0.235,2.588-34.266,23.649-40.84C22.592,4.598,2.43,22.303,0,44.978
		c1.264-5.276,5.998-9.203,11.662-9.203c5.818,0,10.629,4.162,11.723,9.663H23.485z"/>
	<path fill="#00E1FF" d="M47.188,4.6c-0.019,0-0.037-0.002-0.054-0.002H47.12v40.84h0.159c1.093-5.501,5.901-9.663,11.727-9.663
		c5.817,0,10.63,4.162,11.724,9.663h0.095C70.811,45.203,68.235,11.181,47.188,4.6z"/>
	<path fill="#00C6F4" d="M23.485,45.438h0.121c1.095-5.501,5.904-9.663,11.722-9.663c5.824,0,10.634,4.162,11.728,9.663h0.064V4.603
		C26.071,11.181,23.499,45.203,23.485,45.438z"/>
	<path opacity="0.2" fill="#122C3D" d="M47.192,3.205c-0.018,0-0.041-0.002-0.058-0.002h-0.009c-0.531,0-1.057,0.021-1.583,0.037
		v1.432c0.531-0.018,1.048-0.073,1.579-0.073h0.014c0.017,0,0.035,0.002,0.054,0.002c0.685,0.002,1.352,0.066,2.033,0.096V3.25
		C48.548,3.228,47.873,3.205,47.192,3.205z"/>
	<path opacity="0.2" fill="#122C3D" d="M49.22,51.912V40.956c-0.921,1.335-1.615,2.834-1.941,4.482h-0.223
		c-0.272-1.393-0.803-2.681-1.515-3.846v6.644L49.22,51.912z"/>
</g>
</svg>
