<svg xmlns="http://www.w3.org/2000/svg" width="94.193" height="100" viewBox="0 0 94.193 100"><path fill="#FFF" d="M49.22 1.833v-.186h-.036C49.083.729 48.332 0 47.383 0c-.948 0-1.701.729-1.805 1.647h-.037v82.939h3.679V1.846v-.004-.009z"/><path fill="#98D24D" d="M45.541 84.586v6.329c-.009 3.045-2.345 5.398-5.092 5.408-2.745-.01-5.08-2.363-5.089-5.408a1.84 1.84 0 0 0-3.68 0h-.005c.009 4.954 3.863 9.073 8.774 9.085 4.911-.012 8.762-4.131 8.771-9.085v-6.329h-3.679z"/><path fill="#00C6F4" d="M94.193 44.436C91.508 22.036 71.5 4.625 47.188 4.6c21.047 6.579 23.624 40.603 23.636 40.838h.123c1.098-5.501 5.906-9.663 11.728-9.663 5.467 0 10.072 3.659 11.518 8.661z"/><path fill="#00E1FF" d="M23.485 45.438c.014-.235 2.588-34.266 23.649-40.84C22.592 4.598 2.43 22.303 0 44.978c1.264-5.276 5.998-9.203 11.662-9.203 5.818 0 10.629 4.162 11.723 9.663h.1z"/><path fill="#00E1FF" d="M47.188 4.6l-.054-.002h-.014v40.84h.159c1.093-5.501 5.901-9.663 11.727-9.663 5.817 0 10.63 4.162 11.724 9.663h.095c-.014-.235-2.59-34.257-23.637-40.838z"/><path fill="#00C6F4" d="M23.485 45.438h.121c1.095-5.501 5.904-9.663 11.722-9.663 5.824 0 10.634 4.162 11.728 9.663h.064V4.603c-21.049 6.578-23.621 40.6-23.635 40.835z"/><path opacity=".2" fill="#122C3D" d="M47.192 3.205l-.058-.002h-.009c-.531 0-1.057.021-1.583.037v1.432c.531-.018 1.048-.073 1.579-.073h.014l.054.002c.685.002 1.352.066 2.033.096V3.25c-.674-.022-1.349-.045-2.03-.045zM49.22 51.912V40.956c-.921 1.335-1.615 2.834-1.941 4.482h-.223a11.646 11.646 0 0 0-1.515-3.846v6.644l3.679 3.676z"/></svg>