<svg xmlns="http://www.w3.org/2000/svg" width="100" height="91.439" viewBox="0 0 100 91.439"><path fill="#FFF" d="M55.333 0C43.657 0 33.777 7.615 30.349 18.141 23.785 19.6 18.434 24.234 15.98 30.359 7.105 30.66 0 37.928 0 46.873c0 8.935 7.082 16.189 15.933 16.517v.03h39.706V.015C55.536.011 55.436 0 55.333 0z"/><path fill="#F2F4F9" d="M81.399 23.059C79.821 10.169 68.922.167 55.639.015V63.42h25.03v-.048C91.421 62.906 100 54.066 100 43.198c0-10.621-8.193-19.311-18.601-20.139z"/><path fill="#00E1FF" d="M33.994 50.736l-15.979 4.293-1.355.363a10.922 10.922 0 0 0-4.338 2.661c-4.304 4.305-4.306 11.282 0 15.588l22.73-22.729c-.226-.223-.594-.299-1.058-.176z"/><path fill="#00C6F4" d="M30.568 69.308l.366-1.366 4.291-15.976c.125-.458.047-.831-.174-1.054l-22.73 22.729c4.302 4.3 11.281 4.3 15.586 0a10.945 10.945 0 0 0 2.661-4.333z"/><path fill="#00E1FF" d="M84.854 54.045l-15.979 4.291-1.355.364a10.934 10.934 0 0 0-4.339 2.662c-4.306 4.303-4.306 11.282 0 15.586L85.91 54.22c-.222-.223-.591-.299-1.056-.175z"/><path fill="#00C6F4" d="M81.43 72.618l.364-1.37 4.291-15.972c.124-.464.048-.834-.176-1.056L63.181 76.948c4.304 4.305 11.283 4.305 15.587 0a11.007 11.007 0 0 0 2.662-4.33z"/><path opacity=".2" fill="#122C3D" d="M35.226 51.966L32.15 63.42h15.407L35.051 50.912c.222.223.3.596.175 1.054zM86.085 55.276l-2.058 7.655a20.169 20.169 0 0 0 7.376-3.213l-5.494-5.498c.224.222.3.593.176 1.056z"/><g><path fill="#83BA36" d="M50.159 81.229c.15 6.808-7.333 8.062-8.13 8.229-2.516.39-13.166 1.72-14.141 1.981 0 0 8.501-9.256 21.193-14.344 1.015 2.115 1.048 3.432 1.078 4.134z"/><path fill="#98D24D" d="M57.45 75.415c-4.056-.412-8.048 1.565-8.369 1.681-12.691 5.088-21.193 14.343-21.193 14.343.59-1.155.796-2.598 1.16-5.272.706-5.078 2.789-7.852 3.513-8.716 7.873-7.95 15.409-1.442 16.328-.805 5.306-2.25 8.811-1.677 8.811-1.677s.23.009.188.222c-.056.246-.232.237-.438.224z"/></g></svg>