<?xml version="1.0" encoding="utf-8"?>
<!-- Generator: Adobe Illustrator 15.0.0, SVG Export Plug-In . SVG Version: 6.00 Build 0)  -->
<!DOCTYPE svg PUBLIC "-//W3C//DTD SVG 1.1//EN" "http://www.w3.org/Graphics/SVG/1.1/DTD/svg11.dtd">
<svg version="1.1" id="Layer_1" xmlns="http://www.w3.org/2000/svg" xmlns:xlink="http://www.w3.org/1999/xlink" x="0px" y="0px"
	 width="100px" height="91.439px" viewBox="0 0 100 91.439" enable-background="new 0 0 100 91.439" xml:space="preserve">
<g>
	<g>
		<path fill="#FFFFFF" d="M55.333,0C43.657,0,33.777,7.615,30.349,18.141c-6.564,1.459-11.915,6.093-14.369,12.218
			C7.105,30.66,0,37.928,0,46.873c0,8.935,7.082,16.189,15.933,16.517v0.03h39.706V0.015C55.536,0.011,55.436,0,55.333,0z"/>
		<path fill="#F2F4F9" d="M81.399,23.059C79.821,10.169,68.922,0.167,55.639,0.015V63.42h25.03v-0.048
			C91.421,62.906,100,54.066,100,43.198C100,32.577,91.807,23.887,81.399,23.059z"/>
	</g>
	<g>
		<path fill="#00E1FF" d="M33.994,50.736l-15.979,4.293l-1.355,0.363c-1.585,0.52-3.079,1.401-4.338,2.661
			c-4.304,4.305-4.306,11.282,0,15.588l22.73-22.729C34.826,50.689,34.458,50.613,33.994,50.736z"/>
		<path fill="#00C6F4" d="M30.568,69.308l0.366-1.366l4.291-15.976c0.125-0.458,0.047-0.831-0.174-1.054l-22.73,22.729
			c4.302,4.3,11.281,4.3,15.586,0C29.165,72.384,30.044,70.895,30.568,69.308z"/>
	</g>
	<g>
		<path fill="#00E1FF" d="M84.854,54.045l-15.979,4.291L67.52,58.7c-1.588,0.522-3.081,1.403-4.339,2.662
			c-4.306,4.303-4.306,11.282,0,15.586l22.729-22.728C85.688,53.997,85.319,53.921,84.854,54.045z"/>
		<path fill="#00C6F4" d="M81.43,72.618l0.364-1.37l4.291-15.972c0.124-0.464,0.048-0.834-0.176-1.056L63.181,76.948
			c4.304,4.305,11.283,4.305,15.587,0C80.026,75.69,80.903,74.201,81.43,72.618z"/>
	</g>
	<path opacity="0.2" fill="#122C3D" d="M35.226,51.966L32.15,63.42h15.407L35.051,50.912C35.273,51.135,35.351,51.508,35.226,51.966
		z"/>
	<path opacity="0.2" fill="#122C3D" d="M86.085,55.276l-2.058,7.655c2.695-0.578,5.199-1.682,7.376-3.213l-5.494-5.498
		C86.133,54.442,86.209,54.813,86.085,55.276z"/>
	<g>
		<path fill="#83BA36" d="M50.159,81.229c0.15,6.808-7.333,8.062-8.13,8.229c-2.516,0.39-13.166,1.72-14.141,1.981
			c0,0,8.501-9.256,21.193-14.344C50.096,79.21,50.129,80.527,50.159,81.229z"/>
		<path fill="#98D24D" d="M57.45,75.415c-4.056-0.412-8.048,1.565-8.369,1.681C36.39,82.184,27.888,91.439,27.888,91.439
			c0.59-1.155,0.796-2.598,1.16-5.272c0.706-5.078,2.789-7.852,3.513-8.716c7.873-7.95,15.409-1.442,16.328-0.805
			c5.306-2.25,8.811-1.677,8.811-1.677s0.23,0.009,0.188,0.222C57.832,75.437,57.656,75.428,57.45,75.415z"/>
	</g>
</g>
</svg>
